<svg width="24" height="24" viewBox="0 0 24 24" fill="none" xmlns="http://www.w3.org/2000/svg">
<path d="M12 6C11.45 6 10.9792 5.80417 10.5875 5.4125C10.1958 5.02083 10 4.55 10 4C10 3.45 10.1958 2.97917 10.5875 2.5875C10.9792 2.19583 11.45 2 12 2C12.55 2 13.0208 2.19583 13.4125 2.5875C13.8042 2.97917 14 3.45 14 4C14 4.55 13.8042 5.02083 13.4125 5.4125C13.0208 5.80417 12.55 6 12 6ZM9.00001 21V9C8.18334 8.93333 7.35834 8.84167 6.52501 8.725C5.69168 8.60833 4.87501 8.45833 4.07501 8.275C3.79168 8.20833 3.56251 8.05 3.38751 7.8C3.21251 7.55 3.16668 7.28333 3.25001 7C3.33334 6.71667 3.50834 6.50833 3.77501 6.375C4.04168 6.24167 4.32501 6.20833 4.62501 6.275C5.79168 6.525 7.00418 6.70833 8.26251 6.825C9.52084 6.94167 10.7667 7 12 7C13.2333 7 14.4792 6.94167 15.7375 6.825C16.9958 6.70833 18.2083 6.525 19.375 6.275C19.675 6.20833 19.9583 6.24167 20.225 6.375C20.4917 6.50833 20.6667 6.71667 20.75 7C20.8333 7.28333 20.7875 7.55 20.6125 7.8C20.4375 8.05 20.2083 8.20833 19.925 8.275C19.125 8.45833 18.3083 8.60833 17.475 8.725C16.6417 8.84167 15.8167 8.93333 15 9V21C15 21.2833 14.9042 21.5208 14.7125 21.7125C14.5208 21.9042 14.2833 22 14 22C13.7167 22 13.4792 21.9042 13.2875 21.7125C13.0958 21.5208 13 21.2833 13 21V16H11V21C11 21.2833 10.9042 21.5208 10.7125 21.7125C10.5208 21.9042 10.2833 22 10 22C9.71668 22 9.47918 21.9042 9.28751 21.7125C9.09584 21.5208 9.00001 21.2833 9.00001 21Z" fill="black"/>
</svg>
