<svg width="24" height="24" viewBox="0 0 24 24" fill="none" xmlns="http://www.w3.org/2000/svg">
<path d="M12 20C12.85 20 13.6667 19.8708 14.45 19.6125C15.2333 19.3542 15.9667 18.9833 16.65 18.5C15.9667 18.0167 15.2333 17.6458 14.45 17.3875C13.6667 17.1292 12.85 17 12 17C11.15 17 10.3333 17.1292 9.55 17.3875C8.76667 17.6458 8.03333 18.0167 7.35 18.5C8.03333 18.9833 8.76667 19.3542 9.55 19.6125C10.3333 19.8708 11.15 20 12 20ZM14.475 7.025C14.9917 7.54167 15.3167 8.15833 15.45 8.875C15.5833 9.59167 15.5 10.2833 15.2 10.95C15.0667 11.2333 14.8708 11.4292 14.6125 11.5375C14.3542 11.6458 14.0917 11.6333 13.825 11.5C13.575 11.3833 13.4 11.1958 13.3 10.9375C13.2 10.6792 13.2167 10.425 13.35 10.175C13.4833 9.89167 13.525 9.59167 13.475 9.275C13.425 8.95833 13.2833 8.68333 13.05 8.45C12.8333 8.23333 12.5792 8.09583 12.2875 8.0375C11.9958 7.97917 11.7083 8.00833 11.425 8.125C11.1917 8.20833 10.9583 8.19583 10.725 8.0875C10.4917 7.97917 10.3333 7.79167 10.25 7.525C10.15 7.24167 10.1708 6.97083 10.3125 6.7125C10.4542 6.45417 10.6667 6.26667 10.95 6.15C11.5333 5.91667 12.1458 5.88333 12.7875 6.05C13.4292 6.21667 13.9917 6.54167 14.475 7.025ZM12 22C10.6167 22 9.31667 21.7375 8.1 21.2125C6.88333 20.6875 5.825 19.975 4.925 19.075C4.025 18.175 3.3125 17.1167 2.7875 15.9C2.2625 14.6833 2 13.3833 2 12C2 11.0167 2.1375 10.0583 2.4125 9.125C2.6875 8.19167 3.09167 7.30833 3.625 6.475L1.375 4.2C1.175 4 1.07917 3.7625 1.0875 3.4875C1.09583 3.2125 1.2 2.975 1.4 2.775C1.6 2.575 1.8375 2.475 2.1125 2.475C2.3875 2.475 2.625 2.575 2.825 2.775L21.2 21.175C21.4 21.375 21.4958 21.6125 21.4875 21.8875C21.4792 22.1625 21.375 22.4 21.175 22.6C20.975 22.8 20.7417 22.9 20.475 22.9C20.2083 22.9 19.975 22.8 19.775 22.6L5.1 7.95C4.73333 8.56667 4.45833 9.21667 4.275 9.9C4.09167 10.5833 4 11.2833 4 12C4 12.95 4.15833 13.8583 4.475 14.725C4.79167 15.5917 5.25 16.3833 5.85 17.1C6.75 16.4167 7.72083 15.8958 8.7625 15.5375C9.80417 15.1792 10.8833 15 12 15C12.6333 15 13.2667 15.0667 13.9 15.2C14.5333 15.3333 15.15 15.5167 15.75 15.75L19.075 19.075C18.125 20.025 17.0417 20.75 15.825 21.25C14.6083 21.75 13.3333 22 12 22ZM7.85 2.9C8.5 2.6 9.175 2.375 9.875 2.225C10.575 2.075 11.2833 2 12 2C13.3333 2 14.6083 2.25 15.825 2.75C17.0417 3.25 18.125 3.975 19.075 4.925C20.025 5.875 20.75 6.95833 21.25 8.175C21.75 9.39167 22 10.6667 22 12C22 12.7167 21.925 13.425 21.775 14.125C21.625 14.825 21.4 15.5 21.1 16.15C20.9833 16.4 20.7917 16.5625 20.525 16.6375C20.2583 16.7125 20.0083 16.6833 19.775 16.55C19.5417 16.4167 19.3833 16.2167 19.3 15.95C19.2167 15.6833 19.2333 15.4167 19.35 15.15C19.5667 14.65 19.7292 14.1333 19.8375 13.6C19.9458 13.0667 20 12.5333 20 12C20 9.76667 19.225 7.875 17.675 6.325C16.125 4.775 14.2333 4 12 4C11.4667 4 10.9333 4.05417 10.4 4.1625C9.86667 4.27083 9.35 4.43333 8.85 4.65C8.58333 4.76667 8.31667 4.78333 8.05 4.7C7.78333 4.61667 7.58333 4.45833 7.45 4.225C7.31667 3.99167 7.2875 3.74167 7.3625 3.475C7.4375 3.20833 7.6 3.01667 7.85 2.9Z" fill="#1C1B1F"/>
</svg>
