<svg width="24" height="24" viewBox="0 0 24 24" fill="none" xmlns="http://www.w3.org/2000/svg">
<path d="M3.00021 20.9996C2.45021 20.9996 1.97938 20.8037 1.58771 20.4121C1.19605 20.0204 1.00021 19.5496 1.00021 18.9996V6.99957C1.00021 6.44957 1.19605 5.97874 1.58771 5.58707C1.97938 5.19541 2.45021 4.99957 3.00021 4.99957H6.15021L7.40021 3.64957C7.58355 3.44957 7.80438 3.29124 8.06271 3.17457C8.32105 3.05791 8.59188 2.99957 8.87521 2.99957H13.0002C13.2835 2.99957 13.521 3.09541 13.7127 3.28707C13.9044 3.47874 14.0002 3.71624 14.0002 3.99957C14.0002 4.28291 13.9044 4.52041 13.7127 4.71207C13.521 4.90374 13.2835 4.99957 13.0002 4.99957H8.87521L7.05021 6.99957H3.00021V18.9996H19.0002V10.9996C19.0002 10.7162 19.096 10.4787 19.2877 10.2871C19.4794 10.0954 19.7169 9.99957 20.0002 9.99957C20.2835 9.99957 20.521 10.0954 20.7127 10.2871C20.9044 10.4787 21.0002 10.7162 21.0002 10.9996V18.9996C21.0002 19.5496 20.8044 20.0204 20.4127 20.4121C20.021 20.8037 19.5502 20.9996 19.0002 20.9996H3.00021ZM19.0002 4.99957H18.0002C17.7169 4.99957 17.4794 4.90374 17.2877 4.71207C17.096 4.52041 17.0002 4.28291 17.0002 3.99957C17.0002 3.71624 17.096 3.47874 17.2877 3.28707C17.4794 3.09541 17.7169 2.99957 18.0002 2.99957H19.0002V1.99957C19.0002 1.71624 19.096 1.47874 19.2877 1.28707C19.4794 1.09541 19.7169 0.999573 20.0002 0.999573C20.2835 0.999573 20.521 1.09541 20.7127 1.28707C20.9044 1.47874 21.0002 1.71624 21.0002 1.99957V2.99957H22.0002C22.2835 2.99957 22.521 3.09541 22.7127 3.28707C22.9044 3.47874 23.0002 3.71624 23.0002 3.99957C23.0002 4.28291 22.9044 4.52041 22.7127 4.71207C22.521 4.90374 22.2835 4.99957 22.0002 4.99957H21.0002V5.99957C21.0002 6.28291 20.9044 6.52041 20.7127 6.71207C20.521 6.90374 20.2835 6.99957 20.0002 6.99957C19.7169 6.99957 19.4794 6.90374 19.2877 6.71207C19.096 6.52041 19.0002 6.28291 19.0002 5.99957V4.99957ZM11.0002 17.4996C12.2502 17.4996 13.3127 17.0621 14.1877 16.1871C15.0627 15.3121 15.5002 14.2496 15.5002 12.9996C15.5002 11.7496 15.0627 10.6871 14.1877 9.81207C13.3127 8.93707 12.2502 8.49957 11.0002 8.49957C9.75021 8.49957 8.68771 8.93707 7.81271 9.81207C6.93771 10.6871 6.50021 11.7496 6.50021 12.9996C6.50021 14.2496 6.93771 15.3121 7.81271 16.1871C8.68771 17.0621 9.75021 17.4996 11.0002 17.4996ZM11.0002 15.4996C10.3002 15.4996 9.70855 15.2579 9.22521 14.7746C8.74188 14.2912 8.50021 13.6996 8.50021 12.9996C8.50021 12.2996 8.74188 11.7079 9.22521 11.2246C9.70855 10.7412 10.3002 10.4996 11.0002 10.4996C11.7002 10.4996 12.2919 10.7412 12.7752 11.2246C13.2585 11.7079 13.5002 12.2996 13.5002 12.9996C13.5002 13.6996 13.2585 14.2912 12.7752 14.7746C12.2919 15.2579 11.7002 15.4996 11.0002 15.4996Z" fill="black"/>
</svg>
