<svg width="24" height="24" viewBox="0 0 24 24" fill="none" xmlns="http://www.w3.org/2000/svg">
<path d="M13 12.6V8.99999C13 8.71666 12.9042 8.47916 12.7125 8.28749C12.5208 8.09583 12.2833 7.99999 12 7.99999C11.7167 7.99999 11.4792 8.09583 11.2875 8.28749C11.0958 8.47916 11 8.71666 11 8.99999V12.975C11 13.1083 11.025 13.2375 11.075 13.3625C11.125 13.4875 11.2 13.6 11.3 13.7L14.1 16.5C14.2833 16.6833 14.5167 16.775 14.8 16.775C15.0833 16.775 15.3167 16.6833 15.5 16.5C15.6833 16.3167 15.775 16.0833 15.775 15.8C15.775 15.5167 15.6833 15.2833 15.5 15.1L13 12.6ZM12 22C10.75 22 9.57916 21.7625 8.48749 21.2875C7.39583 20.8125 6.44583 20.1708 5.63749 19.3625C4.82916 18.5542 4.18749 17.6042 3.71249 16.5125C3.23749 15.4208 2.99999 14.25 2.99999 13C2.99999 11.75 3.23749 10.5792 3.71249 9.48749C4.18749 8.39583 4.82916 7.44583 5.63749 6.63749C6.44583 5.82916 7.39583 5.18749 8.48749 4.71249C9.57916 4.23749 10.75 3.99999 12 3.99999C13.25 3.99999 14.4208 4.23749 15.5125 4.71249C16.6042 5.18749 17.5542 5.82916 18.3625 6.63749C19.1708 7.44583 19.8125 8.39583 20.2875 9.48749C20.7625 10.5792 21 11.75 21 13C21 14.25 20.7625 15.4208 20.2875 16.5125C19.8125 17.6042 19.1708 18.5542 18.3625 19.3625C17.5542 20.1708 16.6042 20.8125 15.5125 21.2875C14.4208 21.7625 13.25 22 12 22ZM2.04999 7.29999C1.86666 7.11666 1.77499 6.88333 1.77499 6.59999C1.77499 6.31666 1.86666 6.08333 2.04999 5.89999L4.89999 3.04999C5.08333 2.86666 5.31666 2.77499 5.59999 2.77499C5.88333 2.77499 6.11666 2.86666 6.29999 3.04999C6.48333 3.23333 6.57499 3.46666 6.57499 3.74999C6.57499 4.03333 6.48333 4.26666 6.29999 4.44999L3.44999 7.29999C3.26666 7.48333 3.03333 7.57499 2.74999 7.57499C2.46666 7.57499 2.23333 7.48333 2.04999 7.29999ZM21.95 7.29999C21.7667 7.48333 21.5333 7.57499 21.25 7.57499C20.9667 7.57499 20.7333 7.48333 20.55 7.29999L17.7 4.44999C17.5167 4.26666 17.425 4.03333 17.425 3.74999C17.425 3.46666 17.5167 3.23333 17.7 3.04999C17.8833 2.86666 18.1167 2.77499 18.4 2.77499C18.6833 2.77499 18.9167 2.86666 19.1 3.04999L21.95 5.89999C22.1333 6.08333 22.225 6.31666 22.225 6.59999C22.225 6.88333 22.1333 7.11666 21.95 7.29999ZM12 20C13.95 20 15.6042 19.3208 16.9625 17.9625C18.3208 16.6042 19 14.95 19 13C19 11.05 18.3208 9.39583 16.9625 8.03749C15.6042 6.67916 13.95 5.99999 12 5.99999C10.05 5.99999 8.39583 6.67916 7.03749 8.03749C5.67916 9.39583 4.99999 11.05 4.99999 13C4.99999 14.95 5.67916 16.6042 7.03749 17.9625C8.39583 19.3208 10.05 20 12 20Z" fill="black"/>
</svg>
