<svg width="24" height="24" viewBox="0 0 24 24" fill="none" xmlns="http://www.w3.org/2000/svg">
<path d="M12 9.875C11.7417 9.875 11.5208 9.96667 11.3375 10.15C11.1542 10.3333 11.0625 10.5542 11.0625 10.8125V14.0625L10.0875 13.0875C9.9125 12.9125 9.69792 12.825 9.44375 12.825C9.18958 12.825 8.97083 12.9167 8.7875 13.1C8.60417 13.2833 8.5125 13.5021 8.5125 13.7563C8.5125 14.0104 8.60417 14.2292 8.7875 14.4125L11.3375 16.9625C11.5261 17.1542 11.7462 17.25 11.9977 17.25C12.2492 17.25 12.4708 17.1542 12.6625 16.9625L15.225 14.4C15.4 14.225 15.4896 14.0083 15.4938 13.75C15.4979 13.4917 15.4083 13.2708 15.225 13.0875C15.0417 12.9042 14.8229 12.8125 14.5688 12.8125C14.3146 12.8125 14.0958 12.9042 13.9125 13.0875L12.9375 14.0625V10.8125C12.9375 10.5542 12.8458 10.3333 12.6625 10.15C12.4792 9.96667 12.2583 9.875 12 9.875ZM5.125 8.05V18.875H18.875V8.05H5.125ZM5.2 20.75C4.65833 20.75 4.19792 20.5615 3.81875 20.1845C3.43958 19.8075 3.25 19.3544 3.25 18.825V6.675C3.25 6.46667 3.28542 6.26042 3.35625 6.05625C3.42708 5.85208 3.52917 5.66667 3.6625 5.5L4.8875 3.95C5.0625 3.725 5.27708 3.55208 5.53125 3.43125C5.78542 3.31042 6.05978 3.25 6.35433 3.25H17.6457C17.9402 3.25 18.2146 3.31042 18.4688 3.43125C18.7229 3.55208 18.9375 3.725 19.1125 3.95L20.3375 5.5C20.4708 5.66667 20.5729 5.85208 20.6438 6.05625C20.7146 6.26042 20.75 6.46667 20.75 6.675V18.8217C20.75 19.3572 20.5597 19.8125 20.179 20.1875C19.7984 20.5625 19.3408 20.75 18.8063 20.75H5.2ZM5.5125 6.175H18.5L17.65 5.125H6.34787L5.5125 6.175Z" fill="black"/>
</svg>
