<svg width="24" height="24" viewBox="0 0 24 24" fill="none" xmlns="http://www.w3.org/2000/svg">
<path d="M12 21C11.7343 21 11.5071 20.9057 11.3186 20.7171C11.13 20.5286 11.0357 20.3014 11.0357 20.0357V14.3143L6.98571 18.3771C6.79714 18.5657 6.57429 18.66 6.31714 18.66C6.06 18.66 5.83286 18.5614 5.63571 18.3643C5.43857 18.1671 5.34 17.94 5.34 17.6829C5.34 17.4257 5.43857 17.1986 5.63571 17.0014L9.68571 12.9643H3.96429C3.69857 12.9643 3.47143 12.87 3.28286 12.6814C3.09429 12.4929 3 12.2657 3 12C3 11.7343 3.09429 11.5071 3.28286 11.3186C3.47143 11.13 3.69857 11.0357 3.96429 11.0357H9.68571L5.62286 6.98571C5.43429 6.79714 5.34 6.57214 5.34 6.31071C5.34 6.04929 5.43857 5.82 5.63571 5.62286C5.83286 5.42571 6.06 5.32714 6.31714 5.32714C6.57429 5.32714 6.80143 5.42571 6.99857 5.62286L11.0357 9.68571V3.96429C11.0357 3.69857 11.13 3.47143 11.3186 3.28286C11.5071 3.09429 11.7343 3 12 3C12.2657 3 12.4929 3.09429 12.6814 3.28286C12.87 3.47143 12.9643 3.69857 12.9643 3.96429V9.68571L17.0143 5.62286C17.2029 5.43429 17.4279 5.33786 17.6893 5.33357C17.9507 5.32929 18.18 5.42571 18.3771 5.62286C18.5743 5.82 18.6729 6.04714 18.6729 6.30429C18.6729 6.56143 18.5743 6.78857 18.3771 6.98571L14.3143 11.0357H20.0357C20.3014 11.0357 20.5286 11.13 20.7171 11.3186C20.9057 11.5071 21 11.7343 21 12C21 12.2657 20.9057 12.4929 20.7171 12.6814C20.5286 12.87 20.3014 12.9643 20.0357 12.9643H14.3143L18.3771 17.0143C18.5657 17.2029 18.6621 17.4257 18.6664 17.6829C18.6707 17.94 18.5743 18.1671 18.3771 18.3643C18.18 18.5614 17.9529 18.66 17.6957 18.66C17.4386 18.66 17.2114 18.5614 17.0143 18.3643L12.9643 14.3143V20.0357C12.9643 20.3014 12.87 20.5286 12.6814 20.7171C12.4929 20.9057 12.2657 21 12 21Z" fill="black"/>
</svg>
