<svg width="24" height="24" viewBox="0 0 24 24" fill="none" xmlns="http://www.w3.org/2000/svg">
<path d="M11.2 23C12.5667 23 13.85 22.6875 15.05 22.0625C16.25 21.4375 17.2333 20.5667 18 19.45L22.425 12.95C22.5417 12.7833 22.5875 12.6042 22.5625 12.4125C22.5375 12.2208 22.4583 12.0583 22.325 11.925C21.9917 11.575 21.5792 11.375 21.0875 11.325C20.5958 11.275 20.15 11.3917 19.75 11.675L17 13.575V4C17 3.71667 16.9042 3.47917 16.7125 3.2875C16.5208 3.09583 16.2833 3 16 3C15.7167 3 15.4792 3.09583 15.2875 3.2875C15.0958 3.47917 15 3.71667 15 4V15.5C15 15.9 15.1792 16.1958 15.5375 16.3875C15.8958 16.5792 16.2417 16.5583 16.575 16.325L18.7 14.85L16.325 18.3C15.7417 19.15 15 19.8125 14.1 20.2875C13.2 20.7625 12.2333 21 11.2 21C9.48334 21 8.02084 20.3958 6.8125 19.1875C5.60417 17.9792 5 16.5167 5 14.8V5C5 4.71667 4.90417 4.47917 4.7125 4.2875C4.52084 4.09583 4.28334 4 4 4C3.71667 4 3.47917 4.09583 3.2875 4.2875C3.09584 4.47917 3 4.71667 3 5V14.8C3 17.0833 3.79584 19.0208 5.3875 20.6125C6.97917 22.2042 8.91667 23 11.2 23ZM12 1C11.7167 1 11.4792 1.09583 11.2875 1.2875C11.0958 1.47917 11 1.71667 11 2V11C11 11.2833 11.0958 11.5208 11.2875 11.7125C11.4792 11.9042 11.7167 12 12 12C12.2833 12 12.5208 11.9042 12.7125 11.7125C12.9042 11.5208 13 11.2833 13 11V2C13 1.71667 12.9042 1.47917 12.7125 1.2875C12.5208 1.09583 12.2833 1 12 1ZM8 2C7.71667 2 7.47917 2.09583 7.2875 2.2875C7.09584 2.47917 7 2.71667 7 3V11C7 11.2833 7.09584 11.5208 7.2875 11.7125C7.47917 11.9042 7.71667 12 8 12C8.28334 12 8.52084 11.9042 8.7125 11.7125C8.90417 11.5208 9 11.2833 9 11V3C9 2.71667 8.90417 2.47917 8.7125 2.2875C8.52084 2.09583 8.28334 2 8 2Z" fill="black"/>
</svg>
