<svg width="24" height="24" viewBox="0 0 24 24" fill="none" xmlns="http://www.w3.org/2000/svg">
<path d="M19 5V7C19 7.28333 19.0958 7.52083 19.2875 7.7125C19.4792 7.90417 19.7167 8 20 8C20.2833 8 20.5208 7.90417 20.7125 7.7125C20.9042 7.52083 21 7.28333 21 7V5H23C23.2833 5 23.5208 4.90417 23.7125 4.7125C23.9042 4.52083 24 4.28333 24 4C24 3.71667 23.9042 3.47917 23.7125 3.2875C23.5208 3.09583 23.2833 3 23 3H21V1C21 0.716667 20.9042 0.479167 20.7125 0.2875C20.5208 0.0958332 20.2833 0 20 0C19.7167 0 19.4792 0.0958332 19.2875 0.2875C19.0958 0.479167 19 0.716667 19 1V3H17C16.7167 3 16.4792 3.09583 16.2875 3.2875C16.0958 3.47917 16 3.71667 16 4C16 4.28333 16.0958 4.52083 16.2875 4.7125C16.4792 4.90417 16.7167 5 17 5H19Z" fill="black"/>
<path d="M3.7 20.3L6 18H20C20.55 18 21.0208 17.8042 21.4125 17.4125C21.8042 17.0208 22 16.55 22 16V11C22 10.7167 21.9042 10.4792 21.7125 10.2875C21.5208 10.0958 21.2833 10 21 10C20.7167 10 20.4792 10.0958 20.2875 10.2875C20.0958 10.4792 20 10.7167 20 11V16H5.15L4 17.125V4H13C13.2833 4 13.5208 3.90417 13.7125 3.7125C13.9042 3.52083 14 3.28333 14 3C14 2.71667 13.9042 2.47917 13.7125 2.2875C13.5208 2.09583 13.2833 2 13 2H4C3.45 2 2.97917 2.19583 2.5875 2.5875C2.19583 2.97917 2 3.45 2 4V19.575C2 20.025 2.20417 20.3375 2.6125 20.5125C3.02083 20.6875 3.38333 20.6167 3.7 20.3Z" fill="black"/>
</svg>
