<svg width="24" height="24" viewBox="0 0 24 24" fill="none" xmlns="http://www.w3.org/2000/svg">
<path d="M17 3.125C18.1 3.125 19.0417 3.51667 19.825 4.3C20.6083 5.08333 21 6.025 21 7.125C21 7.30833 20.9875 7.55417 20.9625 7.8625C20.9375 8.17083 20.9 8.525 20.85 8.925L19.475 19C19.3917 19.6333 19.1042 20.15 18.6125 20.55C18.1208 20.95 17.5583 21.15 16.925 21.15C16.5417 21.15 16.1875 21.0667 15.8625 20.9C15.5375 20.7333 15.2667 20.5 15.05 20.2L12.375 16.3C12.3417 16.2333 12.2875 16.1875 12.2125 16.1625C12.1375 16.1375 12.0583 16.125 11.975 16.125C11.9083 16.125 11.775 16.2 11.575 16.35L8.975 20.125C8.74167 20.4583 8.45417 20.7125 8.1125 20.8875C7.77083 21.0625 7.40833 21.15 7.025 21.15C6.39167 21.15 5.83333 20.9458 5.35 20.5375C4.86667 20.1292 4.58333 19.6083 4.5 18.975L3.15 8.925C3.1 8.525 3.0625 8.17083 3.0375 7.8625C3.0125 7.55417 3 7.30833 3 7.125C3 6.025 3.39167 5.08333 4.175 4.3C4.95833 3.51667 5.9 3.125 7 3.125C7.6 3.125 8.07917 3.20417 8.4375 3.3625C8.79583 3.52083 9.14167 3.69167 9.475 3.875C9.80833 4.05833 10.1625 4.22917 10.5375 4.3875C10.9125 4.54583 11.4 4.625 12 4.625C12.6 4.625 13.0875 4.54583 13.4625 4.3875C13.8375 4.22917 14.1917 4.05833 14.525 3.875C14.8583 3.69167 15.2083 3.52083 15.575 3.3625C15.9417 3.20417 16.4167 3.125 17 3.125ZM17 5.125C16.6167 5.125 16.2792 5.20417 15.9875 5.3625C15.6958 5.52083 15.375 5.69167 15.025 5.875C14.675 6.05833 14.2667 6.22917 13.8 6.3875C13.3333 6.54583 12.7333 6.625 12 6.625C11.2667 6.625 10.6667 6.54583 10.2 6.3875C9.73333 6.22917 9.325 6.05833 8.975 5.875C8.625 5.69167 8.30417 5.52083 8.0125 5.3625C7.72083 5.20417 7.38333 5.125 7 5.125C6.45 5.125 5.97917 5.32083 5.5875 5.7125C5.19583 6.10417 5 6.575 5 7.125C5 7.25833 5.00833 7.45 5.025 7.7C5.04167 7.95 5.075 8.24167 5.125 8.575L6.5 18.7C6.51667 18.8333 6.575 18.9375 6.675 19.0125C6.775 19.0875 6.89167 19.125 7.025 19.125C7.10833 19.125 7.18333 19.1083 7.25 19.075C7.31667 19.0417 7.36667 18.9917 7.4 18.925L9.925 15.225C10.1583 14.8917 10.4583 14.625 10.825 14.425C11.1917 14.225 11.5833 14.125 12 14.125C12.4167 14.125 12.8083 14.225 13.175 14.425C13.5417 14.625 13.8417 14.8917 14.075 15.225L16.65 19C16.6833 19.05 16.725 19.0875 16.775 19.1125C16.825 19.1375 16.8833 19.15 16.95 19.15C17.0833 19.15 17.2042 19.1125 17.3125 19.0375C17.4208 18.9625 17.4833 18.8583 17.5 18.725L18.875 8.575C18.925 8.24167 18.9583 7.95 18.975 7.7C18.9917 7.45 19 7.25833 19 7.125C19 6.575 18.8042 6.10417 18.4125 5.7125C18.0208 5.32083 17.55 5.125 17 5.125Z" fill="black"/>
</svg>
