<svg width="24" height="24" viewBox="0 0 24 24" fill="none" xmlns="http://www.w3.org/2000/svg">
<path d="M12 10.7749L8.1 14.6749C7.91667 14.8582 7.68334 14.9499 7.4 14.9499C7.11667 14.9499 6.88334 14.8582 6.7 14.6749C6.51667 14.4916 6.425 14.2582 6.425 13.9749C6.425 13.6916 6.51667 13.4582 6.7 13.2749L11.3 8.6749C11.4 8.5749 11.5083 8.50407 11.625 8.4624C11.7417 8.42074 11.8667 8.3999 12 8.3999C12.1333 8.3999 12.2583 8.42074 12.375 8.4624C12.4917 8.50407 12.6 8.5749 12.7 8.6749L17.3 13.2749C17.4833 13.4582 17.575 13.6916 17.575 13.9749C17.575 14.2582 17.4833 14.4916 17.3 14.6749C17.1167 14.8582 16.8833 14.9499 16.6 14.9499C16.3167 14.9499 16.0833 14.8582 15.9 14.6749L12 10.7749Z" fill="black"/>
</svg>
