<svg width="24" height="24" viewBox="0 0 24 24" fill="none" xmlns="http://www.w3.org/2000/svg">
<path d="M12 19.1L15.8625 15.25C16.0542 15.0666 16.2729 14.9729 16.5187 14.9687C16.7646 14.9645 16.9833 15.0583 17.175 15.25C17.3667 15.4416 17.4625 15.6645 17.4625 15.9187C17.4625 16.1729 17.3667 16.3958 17.175 16.5875L13.325 20.45C12.9667 20.8083 12.525 20.9875 12 20.9875C11.475 20.9875 11.0333 20.8083 10.675 20.45L6.8125 16.5875C6.62083 16.3958 6.52708 16.1729 6.53125 15.9187C6.53541 15.6645 6.63333 15.4416 6.825 15.25C7.01666 15.0666 7.23958 14.9729 7.49375 14.9687C7.74791 14.9645 7.97083 15.0583 8.1625 15.25L12 19.1ZM12 4.89995L8.15 8.73745C7.95833 8.92078 7.73958 9.01245 7.49375 9.01245C7.24791 9.01245 7.02916 8.92078 6.8375 8.73745C6.64583 8.54578 6.54791 8.32287 6.54375 8.0687C6.53958 7.81453 6.63333 7.59162 6.825 7.39995L10.675 3.54995C11.0333 3.19162 11.475 3.01245 12 3.01245C12.525 3.01245 12.9667 3.19162 13.325 3.54995L17.175 7.39995C17.3667 7.59162 17.4604 7.81453 17.4562 8.0687C17.4521 8.32287 17.3542 8.54578 17.1625 8.73745C16.9708 8.91245 16.75 9.00412 16.5 9.01245C16.25 9.02078 16.0292 8.92912 15.8375 8.73745L12 4.89995Z" fill="black"/>
</svg>
