<svg width="24" height="24" viewBox="0 0 24 24" fill="none" xmlns="http://www.w3.org/2000/svg">
<path d="M11 1C10.7167 1 10.4792 1.09583 10.2875 1.2875C10.0958 1.47917 10 1.71667 10 2V11C10 11.2833 10.0958 11.5208 10.2875 11.7125C10.4792 11.9042 10.7167 12 11 12C11.2833 12 11.5208 11.9042 11.7125 11.7125C11.9042 11.5208 12 11.2833 12 11V2C12 1.71667 11.9042 1.47917 11.7125 1.2875C11.5208 1.09583 11.2833 1 11 1ZM15 2C14.7167 2 14.4792 2.09583 14.2875 2.2875C14.0958 2.47917 14 2.71667 14 3V11C14 11.2833 14.0958 11.5208 14.2875 11.7125C14.4792 11.9042 14.7167 12 15 12C15.2833 12 15.5208 11.9042 15.7125 11.7125C15.9042 11.5208 16 11.2833 16 11V3C16 2.71667 15.9042 2.47917 15.7125 2.2875C15.5208 2.09583 15.2833 2 15 2ZM11.5 23C13.8667 23 15.875 22.175 17.525 20.525C19.175 18.875 20 16.8667 20 14.5V5C20 4.71667 19.9042 4.47917 19.7125 4.2875C19.5208 4.09583 19.2833 4 19 4C18.7167 4 18.4792 4.09583 18.2875 4.2875C18.0958 4.47917 18 4.71667 18 5V14.5C18 16.3167 17.3708 17.8542 16.1125 19.1125C14.8542 20.3708 13.3167 21 11.5 21C9.68333 21 8.14583 20.3708 6.8875 19.1125C5.62917 17.8542 5 16.3167 5 14.5V11C5.28333 11 5.52083 11.0958 5.7125 11.2875C5.90417 11.4792 6 11.7167 6 12V15C6 15.2833 6.09583 15.5208 6.2875 15.7125C6.47917 15.9042 6.71667 16 7 16H9C9.55 16 10.0208 16.1958 10.4125 16.5875C10.8042 16.9792 11 17.45 11 18V19C11 19.2833 11.0958 19.5208 11.2875 19.7125C11.4792 19.9042 11.7167 20 12 20C12.2833 20 12.5208 19.9042 12.7125 19.7125C12.9042 19.5208 13 19.2833 13 19V18C13 16.9 12.6083 15.9583 11.825 15.175C11.0417 14.3917 10.1 14 9 14H8V4C8 3.71667 7.90417 3.47917 7.7125 3.2875C7.52083 3.09583 7.28333 3 7 3C6.71667 3 6.47917 3.09583 6.2875 3.2875C6.09583 3.47917 6 3.71667 6 4V9.175C5.83333 9.125 5.67083 9.08333 5.5125 9.05C5.35417 9.01667 5.18333 9 5 9H4C3.71667 9 3.47917 9.09583 3.2875 9.2875C3.09583 9.47917 3 9.71667 3 10V14.5C3 16.8667 3.825 18.875 5.475 20.525C7.125 22.175 9.13333 23 11.5 23Z" fill="black"/>
</svg>
