<svg width="1234" height="184" viewBox="0 0 1234 184" fill="none" xmlns="http://www.w3.org/2000/svg">
<rect width="1234" height="184" fill="white"/>
<path d="M91.95 98C92.3 98 92.5958 97.8792 92.8375 97.6375C93.0792 97.3958 93.2 97.1 93.2 96.75C93.2 96.4 93.0792 96.1042 92.8375 95.8625C92.5958 95.6208 92.3 95.5 91.95 95.5C91.6 95.5 91.3042 95.6208 91.0625 95.8625C90.8208 96.1042 90.7 96.4 90.7 96.75C90.7 97.1 90.8208 97.3958 91.0625 97.6375C91.3042 97.8792 91.6 98 91.95 98ZM92 102C90.6167 102 89.3167 101.738 88.1 101.212C86.8833 100.688 85.825 99.975 84.925 99.075C84.025 98.175 83.3125 97.1167 82.7875 95.9C82.2625 94.6833 82 93.3833 82 92C82 90.6167 82.2625 89.3167 82.7875 88.1C83.3125 86.8833 84.025 85.825 84.925 84.925C85.825 84.025 86.8833 83.3125 88.1 82.7875C89.3167 82.2625 90.6167 82 92 82C93.3833 82 94.6833 82.2625 95.9 82.7875C97.1167 83.3125 98.175 84.025 99.075 84.925C99.975 85.825 100.688 86.8833 101.212 88.1C101.738 89.3167 102 90.6167 102 92C102 93.3833 101.738 94.6833 101.212 95.9C100.688 97.1167 99.975 98.175 99.075 99.075C98.175 99.975 97.1167 100.688 95.9 101.212C94.6833 101.738 93.3833 102 92 102ZM92 100C94.2333 100 96.125 99.225 97.675 97.675C99.225 96.125 100 94.2333 100 92C100 89.7667 99.225 87.875 97.675 86.325C96.125 84.775 94.2333 84 92 84C89.7667 84 87.875 84.775 86.325 86.325C84.775 87.875 84 89.7667 84 92C84 94.2333 84.775 96.125 86.325 97.675C87.875 99.225 89.7667 100 92 100ZM92.1 87.7C92.5167 87.7 92.8792 87.8333 93.1875 88.1C93.4958 88.3667 93.65 88.7 93.65 89.1C93.65 89.4667 93.5375 89.7917 93.3125 90.075C93.0875 90.3583 92.8333 90.625 92.55 90.875C92.1667 91.2083 91.8292 91.575 91.5375 91.975C91.2458 92.375 91.1 92.825 91.1 93.325C91.1 93.5583 91.1875 93.7542 91.3625 93.9125C91.5375 94.0708 91.7417 94.15 91.975 94.15C92.225 94.15 92.4375 94.0667 92.6125 93.9C92.7875 93.7333 92.9 93.525 92.95 93.275C93.0167 92.925 93.1667 92.6125 93.4 92.3375C93.6333 92.0625 93.8833 91.8 94.15 91.55C94.5333 91.1833 94.8625 90.7833 95.1375 90.35C95.4125 89.9167 95.55 89.4333 95.55 88.9C95.55 88.05 95.2042 87.3542 94.5125 86.8125C93.8208 86.2708 93.0167 86 92.1 86C91.4667 86 90.8625 86.1333 90.2875 86.4C89.7125 86.6667 89.275 87.075 88.975 87.625C88.8583 87.825 88.8208 88.0375 88.8625 88.2625C88.9042 88.4875 89.0167 88.6583 89.2 88.775C89.4333 88.9083 89.675 88.95 89.925 88.9C90.175 88.85 90.3833 88.7083 90.55 88.475C90.7333 88.225 90.9625 88.0333 91.2375 87.9C91.5125 87.7667 91.8 87.7 92.1 87.7Z" fill="black"/>
<path d="M196 97C196.283 97 196.521 96.9042 196.713 96.7125C196.904 96.5208 197 96.2833 197 96V92C197 91.7167 196.904 91.4792 196.713 91.2875C196.521 91.0958 196.283 91 196 91C195.717 91 195.479 91.0958 195.288 91.2875C195.096 91.4792 195 91.7167 195 92V96C195 96.2833 195.096 96.5208 195.288 96.7125C195.479 96.9042 195.717 97 196 97ZM196 89C196.283 89 196.521 88.9042 196.713 88.7125C196.904 88.5208 197 88.2833 197 88C197 87.7167 196.904 87.4792 196.713 87.2875C196.521 87.0958 196.283 87 196 87C195.717 87 195.479 87.0958 195.288 87.2875C195.096 87.4792 195 87.7167 195 88C195 88.2833 195.096 88.5208 195.288 88.7125C195.479 88.9042 195.717 89 196 89ZM196 102C194.617 102 193.317 101.738 192.1 101.212C190.883 100.688 189.825 99.975 188.925 99.075C188.025 98.175 187.312 97.1167 186.788 95.9C186.263 94.6833 186 93.3833 186 92C186 90.6167 186.263 89.3167 186.788 88.1C187.312 86.8833 188.025 85.825 188.925 84.925C189.825 84.025 190.883 83.3125 192.1 82.7875C193.317 82.2625 194.617 82 196 82C197.383 82 198.683 82.2625 199.9 82.7875C201.117 83.3125 202.175 84.025 203.075 84.925C203.975 85.825 204.688 86.8833 205.212 88.1C205.738 89.3167 206 90.6167 206 92C206 93.3833 205.738 94.6833 205.212 95.9C204.688 97.1167 203.975 98.175 203.075 99.075C202.175 99.975 201.117 100.688 199.9 101.212C198.683 101.738 197.383 102 196 102ZM196 100C198.233 100 200.125 99.225 201.675 97.675C203.225 96.125 204 94.2333 204 92C204 89.7667 203.225 87.875 201.675 86.325C200.125 84.775 198.233 84 196 84C193.767 84 191.875 84.775 190.325 86.325C188.775 87.875 188 89.7667 188 92C188 94.2333 188.775 96.125 190.325 97.675C191.875 99.225 193.767 100 196 100Z" fill="black"/>
<path d="M300 97C300.283 97 300.521 96.9042 300.713 96.7125C300.904 96.5208 301 96.2833 301 96C301 95.7167 300.904 95.4792 300.713 95.2875C300.521 95.0958 300.283 95 300 95C299.717 95 299.479 95.0958 299.288 95.2875C299.096 95.4792 299 95.7167 299 96C299 96.2833 299.096 96.5208 299.288 96.7125C299.479 96.9042 299.717 97 300 97ZM300 93C300.283 93 300.521 92.9042 300.713 92.7125C300.904 92.5208 301 92.2833 301 92V88C301 87.7167 300.904 87.4792 300.713 87.2875C300.521 87.0958 300.283 87 300 87C299.717 87 299.479 87.0958 299.288 87.2875C299.096 87.4792 299 87.7167 299 88V92C299 92.2833 299.096 92.5208 299.288 92.7125C299.479 92.9042 299.717 93 300 93ZM300 102C298.617 102 297.317 101.738 296.1 101.212C294.883 100.688 293.825 99.975 292.925 99.075C292.025 98.175 291.312 97.1167 290.788 95.9C290.263 94.6833 290 93.3833 290 92C290 90.6167 290.263 89.3167 290.788 88.1C291.312 86.8833 292.025 85.825 292.925 84.925C293.825 84.025 294.883 83.3125 296.1 82.7875C297.317 82.2625 298.617 82 300 82C301.383 82 302.683 82.2625 303.9 82.7875C305.117 83.3125 306.175 84.025 307.075 84.925C307.975 85.825 308.688 86.8833 309.212 88.1C309.738 89.3167 310 90.6167 310 92C310 93.3833 309.738 94.6833 309.212 95.9C308.688 97.1167 307.975 98.175 307.075 99.075C306.175 99.975 305.117 100.688 303.9 101.212C302.683 101.738 301.383 102 300 102ZM300 100C302.233 100 304.125 99.225 305.675 97.675C307.225 96.125 308 94.2333 308 92C308 89.7667 307.225 87.875 305.675 86.325C304.125 84.775 302.233 84 300 84C297.767 84 295.875 84.775 294.325 86.325C292.775 87.875 292 89.7667 292 92C292 94.2333 292.775 96.125 294.325 97.675C295.875 99.225 297.767 100 300 100Z" fill="black"/>
<path d="M394.725 101C394.542 101 394.375 100.954 394.225 100.863C394.075 100.771 393.958 100.65 393.875 100.5C393.792 100.35 393.746 100.188 393.738 100.013C393.729 99.8375 393.775 99.6667 393.875 99.5L403.125 83.5C403.225 83.3333 403.354 83.2083 403.513 83.125C403.671 83.0417 403.833 83 404 83C404.167 83 404.329 83.0417 404.488 83.125C404.646 83.2083 404.775 83.3333 404.875 83.5L414.125 99.5C414.225 99.6667 414.271 99.8375 414.263 100.013C414.254 100.188 414.208 100.35 414.125 100.5C414.042 100.65 413.925 100.771 413.775 100.863C413.625 100.954 413.458 101 413.275 101H394.725ZM396.45 99H411.55L404 86L396.45 99ZM404 98C404.283 98 404.521 97.9042 404.713 97.7125C404.904 97.5208 405 97.2833 405 97C405 96.7167 404.904 96.4792 404.713 96.2875C404.521 96.0958 404.283 96 404 96C403.717 96 403.479 96.0958 403.288 96.2875C403.096 96.4792 403 96.7167 403 97C403 97.2833 403.096 97.5208 403.288 97.7125C403.479 97.9042 403.717 98 404 98ZM404 95C404.283 95 404.521 94.9042 404.713 94.7125C404.904 94.5208 405 94.2833 405 94V91C405 90.7167 404.904 90.4792 404.713 90.2875C404.521 90.0958 404.283 90 404 90C403.717 90 403.479 90.0958 403.288 90.2875C403.096 90.4792 403 90.7167 403 91V94C403 94.2833 403.096 94.5208 403.288 94.7125C403.479 94.9042 403.717 95 404 95Z" fill="black"/>
<path d="M508 96C508.283 96 508.521 95.9042 508.713 95.7125C508.904 95.5208 509 95.2833 509 95C509 94.7167 508.904 94.4792 508.713 94.2875C508.521 94.0958 508.283 94 508 94C507.717 94 507.479 94.0958 507.287 94.2875C507.096 94.4792 507 94.7167 507 95C507 95.2833 507.096 95.5208 507.287 95.7125C507.479 95.9042 507.717 96 508 96ZM507 92H509V87H507V92ZM508 102C505.683 101.417 503.771 100.087 502.263 98.0125C500.754 95.9375 500 93.6333 500 91.1V85L508 82L516 85V91.1C516 93.6333 515.246 95.9375 513.738 98.0125C512.229 100.087 510.317 101.417 508 102ZM508 99.9C509.733 99.35 511.167 98.25 512.3 96.6C513.433 94.95 514 93.1167 514 91.1V86.375L508 84.125L502 86.375V91.1C502 93.1167 502.567 94.95 503.7 96.6C504.833 98.25 506.267 99.35 508 99.9Z" fill="black"/>
</svg>
