<svg width="24" height="24" viewBox="0 0 24 24" fill="none" xmlns="http://www.w3.org/2000/svg">
<path d="M4 21C3.45 21 2.97917 20.8042 2.5875 20.4125C2.19583 20.0208 2 19.55 2 19V10C2 9.68333 2.07083 9.38333 2.2125 9.1C2.35417 8.81667 2.55 8.58333 2.8 8.4L8.8 3.9C8.98333 3.76667 9.175 3.66667 9.375 3.6C9.575 3.53333 9.78333 3.5 10 3.5C10.2167 3.5 10.425 3.53333 10.625 3.6C10.825 3.66667 11.0167 3.76667 11.2 3.9L13.925 5.95C14.1917 6.15 14.3292 6.3875 14.3375 6.6625C14.3458 6.9375 14.275 7.175 14.125 7.375C13.975 7.575 13.7708 7.70417 13.5125 7.7625C13.2542 7.82083 12.9833 7.75 12.7 7.55L10 5.5L4 10V19H7C7.28333 19 7.52083 19.0958 7.7125 19.2875C7.90417 19.4792 8 19.7167 8 20C8 20.2833 7.90417 20.5208 7.7125 20.7125C7.52083 20.9042 7.28333 21 7 21H4ZM16 16C16.9 16 17.7708 16.1167 18.6125 16.35C19.4542 16.5833 20.2583 16.925 21.025 17.375C21.325 17.5583 21.5625 17.8042 21.7375 18.1125C21.9125 18.4208 22 18.75 22 19.1C22 19.6333 21.8167 20.0833 21.45 20.45C21.0833 20.8167 20.6333 21 20.1 21H11.9C11.3667 21 10.9167 20.8167 10.55 20.45C10.1833 20.0833 10 19.6333 10 19.1C10 18.75 10.0875 18.4208 10.2625 18.1125C10.4375 17.8042 10.675 17.5583 10.975 17.375C11.7417 16.925 12.5458 16.5833 13.3875 16.35C14.2292 16.1167 15.1 16 16 16ZM12.15 19H19.85C19.2667 18.6667 18.65 18.4167 18 18.25C17.35 18.0833 16.6833 18 16 18C15.3167 18 14.65 18.0833 14 18.25C13.35 18.4167 12.7333 18.6667 12.15 19ZM16 15C15.1667 15 14.4583 14.7083 13.875 14.125C13.2917 13.5417 13 12.8333 13 12C13 11.1667 13.2917 10.4583 13.875 9.875C14.4583 9.29167 15.1667 9 16 9C16.8333 9 17.5417 9.29167 18.125 9.875C18.7083 10.4583 19 11.1667 19 12C19 12.8333 18.7083 13.5417 18.125 14.125C17.5417 14.7083 16.8333 15 16 15ZM16 13C16.2833 13 16.5208 12.9042 16.7125 12.7125C16.9042 12.5208 17 12.2833 17 12C17 11.7167 16.9042 11.4792 16.7125 11.2875C16.5208 11.0958 16.2833 11 16 11C15.7167 11 15.4792 11.0958 15.2875 11.2875C15.0958 11.4792 15 11.7167 15 12C15 12.2833 15.0958 12.5208 15.2875 12.7125C15.4792 12.9042 15.7167 13 16 13Z" fill="black"/>
</svg>
