<svg width="24" height="24" viewBox="0 0 24 24" fill="none" xmlns="http://www.w3.org/2000/svg">
<path d="M13.2 3.9L19.2 8.4C19.45 8.58333 19.6458 8.81667 19.7875 9.1C19.9292 9.38333 20 9.68333 20 10V19C20 19.55 19.8042 20.0208 19.4125 20.4125C19.0208 20.8042 18.55 21 18 21H6C5.45 21 4.97917 20.8042 4.5875 20.4125C4.19583 20.0208 4 19.55 4 19V10C4 9.68333 4.07083 9.38333 4.2125 9.1C4.35417 8.81667 4.55 8.58333 4.8 8.4L10.8 3.9C11.15 3.63333 11.55 3.5 12 3.5C12.45 3.5 12.85 3.63333 13.2 3.9ZM12 15C12.8333 15 13.5417 14.7083 14.125 14.125C14.7083 13.5417 15 12.8333 15 12C15 11.1667 14.7083 10.4583 14.125 9.875C13.5417 9.29167 12.8333 9 12 9C11.1667 9 10.4583 9.29167 9.875 9.875C9.29167 10.4583 9 11.1667 9 12C9 12.8333 9.29167 13.5417 9.875 14.125C10.4583 14.7083 11.1667 15 12 15ZM12 13C11.7167 13 11.4792 12.9042 11.2875 12.7125C11.0958 12.5208 11 12.2833 11 12C11 11.7167 11.0958 11.4792 11.2875 11.2875C11.4792 11.0958 11.7167 11 12 11C12.2833 11 12.5208 11.0958 12.7125 11.2875C12.9042 11.4792 13 11.7167 13 12C13 12.2833 12.9042 12.5208 12.7125 12.7125C12.5208 12.9042 12.2833 13 12 13ZM12 18C11.3167 18 10.65 18.0833 10 18.25C9.35 18.4167 8.73333 18.6667 8.15 19H15.85C15.2667 18.6667 14.65 18.4167 14 18.25C13.35 18.0833 12.6833 18 12 18ZM6 10V18C6.86667 17.35 7.80833 16.8542 8.825 16.5125C9.84167 16.1708 10.9 16 12 16C13.1 16 14.1583 16.1708 15.175 16.5125C16.1917 16.8542 17.1333 17.35 18 18V10L12 5.5L6 10Z" fill="black"/>
</svg>
