<svg width="24" height="24" viewBox="0 0 24 24" fill="none" xmlns="http://www.w3.org/2000/svg">
<path d="M19.425 18H16.25C15.9667 18 15.7292 17.9042 15.5375 17.7125C15.3458 17.5208 15.25 17.2833 15.25 17C15.25 16.7167 15.3458 16.4792 15.5375 16.2875C15.7292 16.0958 15.9667 16 16.25 16H19.425L18.525 15.1C18.3417 14.9167 18.25 14.6875 18.25 14.4125C18.25 14.1375 18.35 13.9 18.55 13.7C18.7333 13.5167 18.9667 13.425 19.25 13.425C19.5333 13.425 19.7667 13.5167 19.95 13.7L22.55 16.3C22.75 16.5 22.85 16.7333 22.85 17C22.85 17.2667 22.75 17.5 22.55 17.7L19.95 20.3C19.7667 20.4833 19.5375 20.5792 19.2625 20.5875C18.9875 20.5958 18.75 20.5 18.55 20.3C18.3667 20.1167 18.275 19.8833 18.275 19.6C18.275 19.3167 18.3667 19.0833 18.55 18.9L19.425 18ZM10 15C10.9333 15 11.775 14.7708 12.525 14.3125C13.275 13.8542 13.8667 13.25 14.3 12.5C13.7167 12.0167 13.0583 11.6458 12.325 11.3875C11.5917 11.1292 10.8167 11 10 11C9.18333 11 8.40833 11.1292 7.675 11.3875C6.94167 11.6458 6.28333 12.0167 5.7 12.5C6.13333 13.25 6.725 13.8542 7.475 14.3125C8.225 14.7708 9.06667 15 10 15ZM10 10C10.55 10 11.0208 9.80417 11.4125 9.4125C11.8042 9.02083 12 8.55 12 8C12 7.45 11.8042 6.97917 11.4125 6.5875C11.0208 6.19583 10.55 6 10 6C9.45 6 8.97917 6.19583 8.5875 6.5875C8.19583 6.97917 8 7.45 8 8C8 8.55 8.19583 9.02083 8.5875 9.4125C8.97917 9.80417 9.45 10 10 10ZM10 21.325C9.76667 21.325 9.53333 21.2833 9.3 21.2C9.06667 21.1167 8.85833 20.9917 8.675 20.825C7.59167 19.825 6.63333 18.85 5.8 17.9C4.96667 16.95 4.27083 16.0292 3.7125 15.1375C3.15417 14.2458 2.72917 13.3875 2.4375 12.5625C2.14583 11.7375 2 10.95 2 10.2C2 7.7 2.80417 5.70833 4.4125 4.225C6.02083 2.74167 7.88333 2 10 2C12.1167 2 13.9792 2.74167 15.5875 4.225C17.1958 5.70833 18 7.7 18 10.2C18 10.35 17.9958 10.5042 17.9875 10.6625C17.9792 10.8208 17.9583 10.9833 17.925 11.15H15.9C15.9333 10.9833 15.9583 10.8208 15.975 10.6625C15.9917 10.5042 16 10.35 16 10.2C16 8.38333 15.4208 6.89583 14.2625 5.7375C13.1042 4.57917 11.6833 4 10 4C8.31667 4 6.89583 4.57917 5.7375 5.7375C4.57917 6.89583 4 8.38333 4 10.2C4 11.3833 4.49167 12.7375 5.475 14.2625C6.45833 15.7875 7.96667 17.4833 10 19.35C10.3833 19.0167 10.7375 18.6833 11.0625 18.35C11.3875 18.0167 11.7 17.6917 12 17.375L12.225 17.6L12.7125 18.0875C12.8875 18.2625 13.0458 18.425 13.1875 18.575L13.4 18.8C13.0167 19.2 12.6333 19.5875 12.25 19.9625C11.8667 20.3375 11.5583 20.625 11.325 20.825C11.1417 20.9917 10.9333 21.1167 10.7 21.2C10.4667 21.2833 10.2333 21.325 10 21.325Z" fill="black"/>
</svg>
