<svg width="24" height="24" viewBox="0 0 24 24" fill="none" xmlns="http://www.w3.org/2000/svg">
<path d="M10.2 12L6.29999 8.1C6.11666 7.91667 6.02499 7.68333 6.02499 7.4C6.02499 7.11667 6.11666 6.88333 6.29999 6.7C6.48333 6.51667 6.71666 6.425 6.99999 6.425C7.28333 6.425 7.51666 6.51667 7.69999 6.7L12.3 11.3C12.4 11.4 12.4708 11.5083 12.5125 11.625C12.5542 11.7417 12.575 11.8667 12.575 12C12.575 12.1333 12.5542 12.2583 12.5125 12.375C12.4708 12.4917 12.4 12.6 12.3 12.7L7.69999 17.3C7.51666 17.4833 7.28333 17.575 6.99999 17.575C6.71666 17.575 6.48333 17.4833 6.29999 17.3C6.11666 17.1167 6.02499 16.8833 6.02499 16.6C6.02499 16.3167 6.11666 16.0833 6.29999 15.9L10.2 12ZM17 6C17.2833 6 17.5208 6.09583 17.7125 6.2875C17.9042 6.47917 18 6.71667 18 7V17C18 17.2833 17.9042 17.5208 17.7125 17.7125C17.5208 17.9042 17.2833 18 17 18C16.7167 18 16.4792 17.9042 16.2875 17.7125C16.0958 17.5208 16 17.2833 16 17V7C16 6.71667 16.0958 6.47917 16.2875 6.2875C16.4792 6.09583 16.7167 6 17 6Z" fill="black"/>
</svg>
