<svg width="24" height="24" viewBox="0 0 24 24" fill="none" xmlns="http://www.w3.org/2000/svg">
<path d="M18.9731 4.8142L17.1807 4.15466L16.5208 2.36173C16.4817 2.25562 16.411 2.16405 16.3182 2.09937C16.2254 2.03468 16.115 2 16.0019 2C15.8888 2 15.7784 2.03468 15.6856 2.09937C15.5928 2.16405 15.5221 2.25562 15.483 2.36173L14.8224 4.15257L13.0286 4.81212C12.9224 4.85118 12.8308 4.92184 12.7661 5.01458C12.7014 5.10732 12.6667 5.21766 12.6667 5.33073C12.6667 5.4438 12.7014 5.55414 12.7661 5.64688C12.8308 5.73962 12.9224 5.81028 13.0286 5.84934L14.82 6.51305L15.4799 8.30493C15.519 8.41104 15.5897 8.50262 15.6825 8.5673C15.7752 8.63199 15.8856 8.66667 15.9988 8.66667C16.1119 8.66667 16.2223 8.63199 16.3151 8.5673C16.4079 8.50262 16.4786 8.41104 16.5177 8.30493L17.1775 6.5134L18.9714 5.85385C19.0776 5.8148 19.1692 5.74413 19.2339 5.65139C19.2986 5.55866 19.3333 5.44831 19.3333 5.33524C19.3333 5.22218 19.2986 5.11183 19.2339 5.01909C19.1692 4.92635 19.0776 4.85569 18.9714 4.81663L18.9731 4.8142Z" fill="black"/>
<path d="M17.1356 12.7541L12.8336 11.1711L11.2499 6.86813C11.1561 6.61347 10.9864 6.3937 10.7637 6.23845C10.5411 6.08321 10.2761 5.99997 10.0046 5.99997C9.73308 5.99997 9.46811 6.08321 9.24543 6.23845C9.02274 6.3937 8.85306 6.61347 8.75927 6.86813L7.17387 11.1661L2.86861 12.7491C2.61382 12.8428 2.39393 13.0124 2.2386 13.235C2.08328 13.4575 2 13.7224 2 13.9937C2 14.2651 2.08328 14.5299 2.2386 14.7525C2.39393 14.9751 2.61382 15.1447 2.86861 15.2384L7.16803 16.8313L8.75177 21.1318C8.84555 21.3865 9.01524 21.6063 9.23792 21.7615C9.46061 21.9167 9.72558 22 9.99708 22C10.2686 22 10.5336 21.9167 10.7562 21.7615C10.9789 21.6063 11.1486 21.3865 11.2424 21.1318L12.8261 16.8321L17.1314 15.2492C17.3862 15.1555 17.6061 14.9859 17.7614 14.7633C17.9167 14.5408 18 14.2759 18 14.0046C18 13.7332 17.9167 13.4684 17.7614 13.2458C17.6061 13.0232 17.3862 12.8536 17.1314 12.7599L17.1356 12.7541Z" fill="black"/>
<path d="M20.7084 9.95955L21.7839 10.3553L21.7829 10.3567C21.8466 10.3802 21.9016 10.4226 21.9404 10.4782C21.9792 10.5339 22 10.6001 22 10.6679C22 10.7357 21.9792 10.8019 21.9404 10.8576C21.9016 10.9132 21.8466 10.9556 21.7829 10.9791L20.7066 11.3748L20.3106 12.4497C20.2872 12.5134 20.2448 12.5683 20.1891 12.6071C20.1334 12.6459 20.0672 12.6668 19.9993 12.6668C19.9314 12.6668 19.8652 12.6459 19.8095 12.6071C19.7538 12.5683 19.7114 12.5134 19.688 12.4497L19.292 11.3746L18.2172 10.9764C18.1535 10.9529 18.0985 10.9105 18.0597 10.8549C18.0209 10.7992 18 10.733 18 10.6652C18 10.5974 18.0209 10.5311 18.0597 10.4755C18.0985 10.4199 18.1535 10.3775 18.2172 10.354L19.2935 9.9583L19.6898 8.88379C19.7133 8.82013 19.7557 8.76519 19.8114 8.72638C19.8671 8.68756 19.9333 8.66676 20.0012 8.66676C20.0691 8.66676 20.1353 8.68756 20.191 8.72638C20.2466 8.76519 20.2891 8.82013 20.3125 8.88379L20.7084 9.95955Z" fill="black"/>
</svg>
