<svg width="24" height="24" viewBox="0 0 24 24" fill="none" xmlns="http://www.w3.org/2000/svg">
<path d="M20.875 9.6263L21.9505 10.022L21.9495 10.0235C22.0132 10.0469 22.0682 10.0893 22.107 10.145C22.1458 10.2006 22.1666 10.2668 22.1666 10.3346C22.1666 10.4025 22.1458 10.4687 22.107 10.5243C22.0682 10.58 22.0132 10.6224 21.9495 10.6458L20.8732 11.0415L20.4772 12.1165C20.4538 12.1801 20.4114 12.2351 20.3557 12.2739C20.3 12.3127 20.2338 12.3335 20.1659 12.3335C20.098 12.3335 20.0318 12.3127 19.9761 12.2739C19.9204 12.2351 19.878 12.1801 19.8546 12.1165L19.4586 11.0413L18.3838 10.6431C18.3201 10.6197 18.2651 10.5773 18.2263 10.5216C18.1875 10.466 18.1666 10.3998 18.1666 10.3319C18.1666 10.2641 18.1875 10.1979 18.2263 10.1423C18.2651 10.0866 18.3201 10.0442 18.3838 10.0208L19.4601 9.62505L19.8565 8.55054C19.8799 8.48688 19.9223 8.43193 19.978 8.39312C20.0337 8.35431 20.0999 8.3335 20.1678 8.3335C20.2357 8.3335 20.3019 8.35431 20.3576 8.39312C20.4132 8.43193 20.4557 8.48688 20.4791 8.55054L20.875 9.6263Z" fill="black"/>
<path fill-rule="evenodd" clip-rule="evenodd" d="M11.9762 12.7149C11.4261 12.5125 10.9925 12.0789 10.79 11.5287L9.83714 8.93985L8.88353 11.5251C8.68077 12.0748 8.24718 12.5079 7.69729 12.7101L5.10569 13.6629L7.69612 14.6227C8.24423 14.8257 8.67607 15.2584 8.87806 15.8069L9.8304 18.3929L10.7826 15.8076C10.9853 15.2576 11.419 14.8241 11.9692 14.6218L14.5649 13.6674L11.9762 12.7149ZM16.9646 14.916L12.6594 16.4989L11.0757 20.7986C10.9819 21.0532 10.8122 21.273 10.5895 21.4283C10.3668 21.5835 10.1018 21.6667 9.83034 21.6667C9.55883 21.6667 9.29386 21.5835 9.07118 21.4283C8.84849 21.273 8.67881 21.0532 8.58502 20.7986L7.00128 16.4981L2.70186 14.9052C2.44707 14.8114 2.22718 14.6418 2.07186 14.4193C1.91653 14.1967 1.83325 13.9319 1.83325 13.6605C1.83325 13.3891 1.91653 13.1243 2.07186 12.9017C2.22718 12.6792 2.44707 12.5096 2.70186 12.4158L7.00712 10.8329L8.59252 6.5349C8.68631 6.28025 8.85599 6.06047 9.07868 5.90523C9.30136 5.74998 9.56633 5.66675 9.83784 5.66675C10.1093 5.66675 10.3743 5.74998 10.597 5.90523C10.8197 6.06047 10.9894 6.28025 11.0832 6.5349L12.6669 10.8379L16.9688 12.4208L16.9646 12.4267L16.9664 12.4273C16.9746 12.4304 16.9828 12.4335 16.991 12.4367C17.1957 12.517 17.3768 12.6467 17.5184 12.8136C17.5245 12.8207 17.5305 12.828 17.5364 12.8352C17.5567 12.8602 17.5761 12.886 17.5946 12.9126C17.75 13.1351 17.8333 13.4 17.8333 13.6713C17.8333 13.9427 17.75 14.2075 17.5946 14.4301C17.4393 14.6527 17.2194 14.8223 16.9646 14.916Z" fill="black"/>
<path fill-rule="evenodd" clip-rule="evenodd" d="M17.5035 4.48791L19.296 5.14745L19.2942 5.14988C19.4004 5.18894 19.492 5.25961 19.5568 5.35234C19.6215 5.44508 19.6562 5.55543 19.6562 5.66849C19.6562 5.78156 19.6215 5.89191 19.5568 5.98465C19.492 6.07738 19.4004 6.14805 19.2942 6.18711L17.5004 6.84665L16.8405 8.63819C16.8014 8.74429 16.7307 8.83587 16.6379 8.90055C16.5452 8.96524 16.4347 8.99992 16.3216 8.99992C16.2085 8.99992 16.0981 8.96524 16.0053 8.90055C15.9125 8.83587 15.8418 8.74429 15.8027 8.63819L15.1428 6.8463L13.3514 6.18259C13.2453 6.14354 13.1536 6.07287 13.0889 5.98013C13.0242 5.8874 12.9895 5.77705 12.9895 5.66398C12.9895 5.55091 13.0242 5.44057 13.0889 5.34783C13.1536 5.25509 13.2453 5.18443 13.3514 5.14537L15.1453 4.48582L15.8059 2.69498C15.8449 2.58888 15.9156 2.4973 16.0084 2.43262C16.1012 2.36793 16.2116 2.33325 16.3247 2.33325C16.4379 2.33325 16.5483 2.36793 16.6411 2.43262C16.7338 2.4973 16.8045 2.58888 16.8436 2.69498L17.5035 4.48791ZM16.6803 4.86565C16.7561 5.07175 16.9185 5.2342 17.1244 5.31004L18.0936 5.66689L17.1218 6.02443C16.9158 6.10022 16.7534 6.26262 16.6776 6.46871L16.321 7.43726L15.9645 6.46844C15.8889 6.26295 15.7272 6.10084 15.522 6.02476L14.5521 5.66521L15.5224 5.30823C15.7283 5.23248 15.8906 5.07022 15.9665 4.86428L16.3236 3.89575L16.6803 4.86565Z" fill="black"/>
</svg>
