<svg width="24" height="24" viewBox="0 0 24 24" fill="none" xmlns="http://www.w3.org/2000/svg">
<path d="M17.5 16.5C17.233 16.5 18.767 16.5 18.5 16.5H20.5C20.6333 16.5 20.75 16.45 20.85 16.35C20.95 16.25 21 16.1333 21 16C21 15.8667 20.95 15.75 20.85 15.65C20.75 15.55 20.6333 15.5 20.5 15.5H18.5C18.1667 15.5 17.8333 15.5 17.5 15.5H15.5C15.3667 15.5 15.25 15.55 15.15 15.65C15.05 15.75 15 15.8667 15 16C15 16.1333 15.05 16.25 15.15 16.35C15.25 16.45 15.3667 16.5 15.5 16.5H17.5ZM18 21C16.6167 21 15.4375 20.5125 14.4625 19.5375C13.4875 18.5625 13 17.3833 13 16C13 14.6167 13.4875 13.4375 14.4625 12.4625C15.4375 11.4875 16.6167 11 18 11C19.3833 11 20.5625 11.4875 21.5375 12.4625C22.5125 13.4375 23 14.6167 23 16C23 17.3833 22.5125 18.5625 21.5375 19.5375C20.5625 20.5125 19.3833 21 18 21ZM4 17V8C4 7.68333 4.07083 7.38333 4.2125 7.1C4.35417 6.81667 4.55 6.58333 4.8 6.4L10.8 1.9C10.9833 1.76667 11.175 1.66667 11.375 1.6C11.575 1.53333 11.7833 1.5 12 1.5C12.2167 1.5 12.425 1.53333 12.625 1.6C12.825 1.66667 13.0167 1.76667 13.2 1.9L19.25 6.45C19.3667 6.53333 19.4542 6.64167 19.5125 6.775C19.5708 6.90833 19.6 7.05 19.6 7.2C19.6 7.48333 19.5042 7.72083 19.3125 7.9125C19.1208 8.10417 18.8833 8.2 18.6 8.2C18.4833 8.2 18.375 8.18333 18.275 8.15C18.175 8.11667 18.0833 8.06667 18 8L12 3.5L6 8V17H10C10.2833 17 10.5208 17.0958 10.7125 17.2875C10.9042 17.4792 11 17.7167 11 18C11 18.2833 10.9042 18.5208 10.7125 18.7125C10.5208 18.9042 10.2833 19 10 19H6C5.45 19 4.97917 18.8042 4.5875 18.4125C4.19583 18.0208 4 17.55 4 17Z" fill="black"/>
</svg>
