<svg width="24" height="24" viewBox="0 0 24 24" fill="none" xmlns="http://www.w3.org/2000/svg">
<path d="M16.325 18.8L15.175 19.95C14.8917 20.2333 14.5417 20.3792 14.125 20.3875C13.7083 20.3958 13.35 20.25 13.05 19.95C12.7667 19.6667 12.625 19.3125 12.625 18.8875C12.625 18.4625 12.7667 18.1083 13.05 17.825L14.2 16.675C14.1333 16.4917 14.0833 16.3 14.05 16.1C14.0167 15.9 14 15.7 14 15.5C14 14.5333 14.3417 13.7083 15.025 13.025C15.7083 12.3417 16.5333 12 17.5 12C17.65 12 17.8 12.0042 17.95 12.0125C18.1 12.0208 18.2417 12.05 18.375 12.1C18.5583 12.1667 18.6708 12.3042 18.7125 12.5125C18.7542 12.7208 18.7083 12.8917 18.575 13.025L17.5 14.1C17.3167 14.2833 17.225 14.5167 17.225 14.8C17.225 15.0833 17.3167 15.3167 17.5 15.5C17.6833 15.6833 17.9167 15.775 18.2 15.775C18.4833 15.775 18.7167 15.6833 18.9 15.5L19.975 14.425C20.1083 14.2917 20.2792 14.2458 20.4875 14.2875C20.6958 14.3292 20.8333 14.4417 20.9 14.625C20.95 14.7583 20.9792 14.9 20.9875 15.05C20.9958 15.2 21 15.35 21 15.5C21 16.4667 20.6583 17.2917 19.975 17.975C19.2917 18.6583 18.4667 19 17.5 19C17.2833 19 17.0792 18.9833 16.8875 18.95C16.6958 18.9167 16.5083 18.8667 16.325 18.8ZM12 5C10.05 5 8.39583 5.67917 7.0375 7.0375C5.67917 8.39583 5 10.05 5 12C5 13.2 5.27083 14.3 5.8125 15.3C6.35417 16.3 7.08333 17.1167 8 17.75V16C8 15.7167 8.09583 15.4792 8.2875 15.2875C8.47917 15.0958 8.71667 15 9 15C9.28333 15 9.52083 15.0958 9.7125 15.2875C9.90417 15.4792 10 15.7167 10 16V20C10 20.2833 9.90417 20.5208 9.7125 20.7125C9.52083 20.9042 9.28333 21 9 21H5C4.71667 21 4.47917 20.9042 4.2875 20.7125C4.09583 20.5208 4 20.2833 4 20C4 19.7167 4.09583 19.4792 4.2875 19.2875C4.47917 19.0958 4.71667 19 5 19H6.35C5.31667 18.1667 4.5 17.1458 3.9 15.9375C3.3 14.7292 3 13.4167 3 12C3 10.75 3.2375 9.57917 3.7125 8.4875C4.1875 7.39583 4.82917 6.44583 5.6375 5.6375C6.44583 4.82917 7.39583 4.1875 8.4875 3.7125C9.57917 3.2375 10.75 3 12 3C13.8833 3 15.5792 3.525 17.0875 4.575C18.5958 5.625 19.6833 6.975 20.35 8.625C20.45 8.89167 20.45 9.15 20.35 9.4C20.25 9.65 20.0667 9.825 19.8 9.925C19.5333 10.025 19.2708 10.025 19.0125 9.925C18.7542 9.825 18.575 9.64167 18.475 9.375C17.9583 8.075 17.1208 7.02083 15.9625 6.2125C14.8042 5.40417 13.4833 5 12 5Z" fill="black"/>
</svg>
