<svg width="24" height="24" viewBox="0 0 24 24" fill="none" xmlns="http://www.w3.org/2000/svg">
<path d="M8.9 10.95L9.425 11.5C9.55833 11.6333 9.72917 11.7 9.9375 11.7C10.1458 11.7 10.325 11.625 10.475 11.475C10.6083 11.3417 10.675 11.1708 10.675 10.9625C10.675 10.7542 10.6083 10.575 10.475 10.425L9.95 9.9L10.5 9.325C10.6333 9.19167 10.6958 9.02083 10.6875 8.8125C10.6792 8.60417 10.6083 8.425 10.475 8.275C10.325 8.14167 10.1458 8.075 9.9375 8.075C9.72917 8.075 9.55833 8.14167 9.425 8.275L8.9 8.8L8.3 8.25C8.16667 8.11667 7.99583 8.05417 7.7875 8.0625C7.57917 8.07083 7.4 8.15 7.25 8.3C7.11667 8.43333 7.04583 8.60417 7.0375 8.8125C7.02917 9.02083 7.1 9.19167 7.25 9.325L7.8 9.9L7.25 10.45C7.11667 10.5833 7.05 10.7542 7.05 10.9625C7.05 11.1708 7.125 11.35 7.275 11.5C7.40833 11.6333 7.57917 11.7042 7.7875 11.7125C7.99583 11.7208 8.16667 11.65 8.3 11.5L8.9 10.95ZM15.1 10.95L15.675 11.525C15.8083 11.6583 15.9792 11.7208 16.1875 11.7125C16.3958 11.7042 16.575 11.625 16.725 11.475C16.8583 11.3417 16.925 11.1708 16.925 10.9625C16.925 10.7542 16.8583 10.575 16.725 10.425L16.2 9.9L16.75 9.325C16.8833 9.19167 16.9458 9.02083 16.9375 8.8125C16.9292 8.60417 16.85 8.425 16.7 8.275C16.5667 8.14167 16.3958 8.07083 16.1875 8.0625C15.9792 8.05417 15.8083 8.125 15.675 8.275L15.1 8.8L14.55 8.275C14.4167 8.14167 14.2458 8.075 14.0375 8.075C13.8292 8.075 13.65 8.15 13.5 8.3C13.3667 8.43333 13.2958 8.60417 13.2875 8.8125C13.2792 9.02083 13.35 9.19167 13.5 9.325L14.05 9.9L13.5 10.45C13.3667 10.5833 13.3 10.7542 13.3 10.9625C13.3 11.1708 13.375 11.3417 13.525 11.475C13.6583 11.625 13.8292 11.7 14.0375 11.7C14.2458 11.7 14.425 11.625 14.575 11.475L15.1 10.95ZM12 22C10.6167 22 9.31667 21.7375 8.1 21.2125C6.88333 20.6875 5.825 19.975 4.925 19.075C4.025 18.175 3.3125 17.1167 2.7875 15.9C2.2625 14.6833 2 13.3833 2 12C2 10.6167 2.2625 9.32083 2.7875 8.1125C3.3125 6.90417 4.025 5.84583 4.925 4.9375C5.825 4.02917 6.88333 3.3125 8.1 2.7875C9.31667 2.2625 10.6167 2 12 2C13.3833 2 14.6792 2.2625 15.8875 2.7875C17.0958 3.3125 18.1542 4.02917 19.0625 4.9375C19.9708 5.84583 20.6875 6.90417 21.2125 8.1125C21.7375 9.32083 22 10.6167 22 12C22 13.3833 21.7375 14.6833 21.2125 15.9C20.6875 17.1167 19.9708 18.175 19.0625 19.075C18.1542 19.975 17.0958 20.6875 15.8875 21.2125C14.6792 21.7375 13.3833 22 12 22ZM12 20C14.2167 20 16.1042 19.225 17.6625 17.675C19.2208 16.125 20 14.2333 20 12C20 9.78333 19.2208 7.89583 17.6625 6.3375C16.1042 4.77917 14.2167 4 12 4C9.76667 4 7.875 4.77917 6.325 6.3375C4.775 7.89583 4 9.78333 4 12C4 14.2333 4.775 16.125 6.325 17.675C7.875 19.225 9.76667 20 12 20ZM12 13.5C11.05 13.5 10.1583 13.7333 9.325 14.2C8.49167 14.6667 7.825 15.3083 7.325 16.125C7.225 16.325 7.23333 16.5208 7.35 16.7125C7.46667 16.9042 7.64167 17 7.875 17H16.1C16.3333 17 16.5083 16.9042 16.625 16.7125C16.7417 16.5208 16.75 16.325 16.65 16.125C16.15 15.3083 15.4875 14.6667 14.6625 14.2C13.8375 13.7333 12.95 13.5 12 13.5Z" fill="black"/>
</svg>
