<svg width="24" height="24" viewBox="0 0 24 24" fill="none" xmlns="http://www.w3.org/2000/svg">
<path d="M11.3 18H12.7C13.6167 18 14.3958 17.7083 15.0375 17.125C15.6792 16.5417 16 15.8333 16 15C16 14.1667 15.6792 13.4583 15.0375 12.875C14.3958 12.2917 13.6167 12 12.7 12H11.3C10.3833 12 9.60417 12.2917 8.9625 12.875C8.32083 13.4583 8 14.1667 8 15C8 15.8333 8.32083 16.5417 8.9625 17.125C9.60417 17.7083 10.3833 18 11.3 18ZM11.3 16.5C10.8 16.5 10.375 16.3542 10.025 16.0625C9.675 15.7708 9.5 15.4167 9.5 15C9.5 14.5833 9.675 14.2292 10.025 13.9375C10.375 13.6458 10.8 13.5 11.3 13.5H12.7C13.2 13.5 13.625 13.6458 13.975 13.9375C14.325 14.2292 14.5 14.5833 14.5 15C14.5 15.4167 14.325 15.7708 13.975 16.0625C13.625 16.3542 13.2 16.5 12.7 16.5H11.3ZM8 10C8.7 10 9.32917 9.8 9.8875 9.4C10.4458 9 10.7917 8.45833 10.925 7.775C10.9583 7.575 10.9083 7.39583 10.775 7.2375C10.6417 7.07917 10.4667 7 10.25 7C10.0667 7 9.9 7.04583 9.75 7.1375C9.6 7.22917 9.48333 7.36667 9.4 7.55C9.28333 7.83333 9.1 8.0625 8.85 8.2375C8.6 8.4125 8.31667 8.5 8 8.5H6.75C6.53333 8.5 6.35417 8.57083 6.2125 8.7125C6.07083 8.85417 6 9.03333 6 9.25C6 9.46667 6.07083 9.64583 6.2125 9.7875C6.35417 9.92917 6.53333 10 6.75 10H8ZM16 10H17.25C17.4667 10 17.6458 9.92917 17.7875 9.7875C17.9292 9.64583 18 9.46667 18 9.25C18 9.03333 17.9292 8.85417 17.7875 8.7125C17.6458 8.57083 17.4667 8.5 17.25 8.5H16C15.6833 8.5 15.4 8.4125 15.15 8.2375C14.9 8.0625 14.7167 7.83333 14.6 7.55C14.5167 7.36667 14.4 7.22917 14.25 7.1375C14.1 7.04583 13.9333 7 13.75 7C13.5333 7 13.3583 7.075 13.225 7.225C13.0917 7.375 13.0417 7.55 13.075 7.75C13.2083 8.43333 13.5542 8.97917 14.1125 9.3875C14.6708 9.79583 15.3 10 16 10ZM12 22C10.6167 22 9.31667 21.7375 8.1 21.2125C6.88333 20.6875 5.825 19.975 4.925 19.075C4.025 18.175 3.3125 17.1167 2.7875 15.9C2.2625 14.6833 2 13.3833 2 12C2 10.6167 2.2625 9.31667 2.7875 8.1C3.3125 6.88333 4.025 5.825 4.925 4.925C5.825 4.025 6.88333 3.3125 8.1 2.7875C9.31667 2.2625 10.6167 2 12 2C13.3833 2 14.6833 2.2625 15.9 2.7875C17.1167 3.3125 18.175 4.025 19.075 4.925C19.975 5.825 20.6875 6.88333 21.2125 8.1C21.7375 9.31667 22 10.6167 22 12C22 13.3833 21.7375 14.6833 21.2125 15.9C20.6875 17.1167 19.975 18.175 19.075 19.075C18.175 19.975 17.1167 20.6875 15.9 21.2125C14.6833 21.7375 13.3833 22 12 22ZM12 20C14.2333 20 16.125 19.225 17.675 17.675C19.225 16.125 20 14.2333 20 12C20 9.76667 19.225 7.875 17.675 6.325C16.125 4.775 14.2333 4 12 4C9.76667 4 7.875 4.775 6.325 6.325C4.775 7.875 4 9.76667 4 12C4 14.2333 4.775 16.125 6.325 17.675C7.875 19.225 9.76667 20 12 20Z" fill="black"/>
</svg>
