<svg width="24" height="24" viewBox="0 0 24 24" fill="none" xmlns="http://www.w3.org/2000/svg">
<path d="M9.75 15.5H14.25C14.4667 15.5 14.6458 15.4292 14.7875 15.2875C14.9292 15.1458 15 14.9667 15 14.75C15 14.5333 14.9292 14.3542 14.7875 14.2125C14.6458 14.0708 14.4667 14 14.25 14H9.75C9.53333 14 9.35417 14.0708 9.2125 14.2125C9.07083 14.3542 9 14.5333 9 14.75C9 14.9667 9.07083 15.1458 9.2125 15.2875C9.35417 15.4292 9.53333 15.5 9.75 15.5ZM12 22C10.6167 22 9.31667 21.7375 8.1 21.2125C6.88333 20.6875 5.825 19.975 4.925 19.075C4.025 18.175 3.3125 17.1167 2.7875 15.9C2.2625 14.6833 2 13.3833 2 12C2 10.6167 2.2625 9.31667 2.7875 8.1C3.3125 6.88333 4.025 5.825 4.925 4.925C5.825 4.025 6.88333 3.3125 8.1 2.7875C9.31667 2.2625 10.6167 2 12 2C13.3833 2 14.6833 2.2625 15.9 2.7875C17.1167 3.3125 18.175 4.025 19.075 4.925C19.975 5.825 20.6875 6.88333 21.2125 8.1C21.7375 9.31667 22 10.6167 22 12C22 13.3833 21.7375 14.6833 21.2125 15.9C20.6875 17.1167 19.975 18.175 19.075 19.075C18.175 19.975 17.1167 20.6875 15.9 21.2125C14.6833 21.7375 13.3833 22 12 22ZM12 20C14.2333 20 16.125 19.225 17.675 17.675C19.225 16.125 20 14.2333 20 12C20 9.76667 19.225 7.875 17.675 6.325C16.125 4.775 14.2333 4 12 4C9.76667 4 7.875 4.775 6.325 6.325C4.775 7.875 4 9.76667 4 12C4 14.2333 4.775 16.125 6.325 17.675C7.875 19.225 9.76667 20 12 20ZM8.5 8.5C8.11667 8.5 7.75 8.575 7.4 8.725C7.05 8.875 6.74167 9.09167 6.475 9.375C6.30833 9.55833 6.225 9.7625 6.225 9.9875C6.225 10.2125 6.31667 10.3833 6.5 10.5C6.66667 10.6167 6.85 10.6583 7.05 10.625C7.25 10.5917 7.43333 10.5083 7.6 10.375C7.73333 10.2583 7.875 10.1708 8.025 10.1125C8.175 10.0542 8.33333 10.025 8.5 10.025C8.66667 10.025 8.825 10.0583 8.975 10.125C9.125 10.1917 9.26667 10.275 9.4 10.375C9.56667 10.5083 9.75 10.5875 9.95 10.6125C10.15 10.6375 10.3333 10.5917 10.5 10.475C10.6833 10.3583 10.775 10.1875 10.775 9.9625C10.775 9.7375 10.6917 9.54167 10.525 9.375C10.2583 9.09167 9.95 8.875 9.6 8.725C9.25 8.575 8.88333 8.5 8.5 8.5ZM15.5 8.5C15.1167 8.5 14.7417 8.575 14.375 8.725C14.0083 8.875 13.6917 9.09167 13.425 9.375C13.2583 9.55833 13.1833 9.75833 13.2 9.975C13.2167 10.1917 13.3167 10.3667 13.5 10.5C13.6667 10.6167 13.85 10.6625 14.05 10.6375C14.25 10.6125 14.4333 10.5333 14.6 10.4C14.7333 10.3 14.875 10.2167 15.025 10.15C15.175 10.0833 15.3333 10.05 15.5 10.05C15.6833 10.05 15.85 10.0833 16 10.15C16.15 10.2167 16.2917 10.3 16.425 10.4C16.5917 10.5333 16.7708 10.6125 16.9625 10.6375C17.1542 10.6625 17.3333 10.6167 17.5 10.5C17.6833 10.3833 17.775 10.2125 17.775 9.9875C17.775 9.7625 17.6917 9.55833 17.525 9.375C17.2583 9.09167 16.95 8.875 16.6 8.725C16.25 8.575 15.8833 8.5 15.5 8.5Z" fill="black"/>
</svg>
