<svg width="24" height="24" viewBox="0 0 24 24" fill="none" xmlns="http://www.w3.org/2000/svg">
<path fill-rule="evenodd" clip-rule="evenodd" d="M6.91783 2.33818C7.5581 2.09108 8.31502 1.913 9.05726 2.04459C9.65275 2.15015 10.1979 2.38686 10.5851 2.82681C10.9837 3.27973 11.1001 3.81687 11.0808 4.28658C11.0455 5.1464 10.5601 5.95124 10.1834 6.41791C9.81665 6.87243 9.15084 6.94354 8.69632 6.57674C8.2418 6.20994 8.17069 5.54413 8.53749 5.08962C8.64919 4.9512 8.76269 4.7768 8.84652 4.59874C8.93022 4.42097 8.96193 4.28734 8.96704 4.20887C8.9238 4.18707 8.83889 4.15393 8.68806 4.12719C8.49112 4.09228 8.15794 4.12671 7.67937 4.3114C7.21798 4.48947 6.71621 4.77031 6.22947 5.09846C5.74633 5.42418 5.30451 5.77853 4.96545 6.08346C4.79605 6.23582 4.65852 6.37025 4.55793 6.47712C4.4764 6.56373 4.43793 6.61248 4.42653 6.62693C4.42211 6.63252 4.42175 6.63298 4.42451 6.62852C4.40783 6.65549 4.39147 6.68155 4.3755 6.70701C4.28668 6.84851 4.20966 6.9712 4.15559 7.12687C4.09842 7.29146 4.11062 7.37868 4.13881 7.44073C4.17076 7.51108 4.31903 7.75714 4.96368 8.03684C5.61042 8.31744 6.66132 8.58806 8.32185 8.75404C10.3257 8.95434 12.0395 9.18707 13.35 9.60944C13.8602 9.23383 14.3829 8.86752 14.9088 8.5222C16.1607 7.70009 17.4704 6.97015 18.6976 6.52574C19.8848 6.09584 21.2017 5.85656 22.3347 6.30946C22.877 6.52625 23.141 7.14164 22.9242 7.68398C22.7074 8.22632 22.092 8.49023 21.5497 8.27344C21.1576 8.11672 20.4665 8.13466 19.4177 8.51444C18.409 8.87972 17.2548 9.51194 16.0698 10.2901C15.8496 10.4348 15.6297 10.5835 15.4109 10.7353C15.5399 10.8576 15.6599 10.9897 15.7693 11.1325C16.2335 11.7384 16.4418 12.452 16.4418 13.2352C16.4418 14.0753 16.0805 15.0107 15.6044 15.8733C15.1114 16.7666 14.4247 17.7078 13.6246 18.5895C12.0513 20.3231 9.89055 21.9875 7.69227 22.4956C6.96908 22.6628 6.32309 22.736 5.77106 22.6776C5.21406 22.6187 4.6319 22.4086 4.24443 21.894C3.86282 21.3871 3.83035 20.7963 3.89707 20.327C3.96414 19.8553 4.14686 19.3754 4.36724 18.9278C5.23184 17.1716 7.14671 14.994 8.62839 13.6151C9.28212 12.969 10.1894 12.1392 11.2353 11.2686C10.3818 11.1119 9.34738 10.9822 8.11147 10.8586C6.34043 10.6816 5.04869 10.3793 4.12182 9.97715C3.19287 9.5741 2.53658 9.02756 2.21311 8.31551C1.88588 7.59517 1.99181 6.9102 2.15762 6.43286C2.29951 6.02437 2.51874 5.68289 2.60166 5.55373C2.61176 5.538 2.61984 5.52542 2.62551 5.51625C2.8094 5.21883 3.17933 4.8452 3.55109 4.51085C3.95719 4.14562 4.47611 3.72969 5.04714 3.34471C5.61455 2.96218 6.26037 2.59192 6.91783 2.33818ZM13.649 12.0379C12.2069 13.1663 10.9315 14.3116 10.1043 15.1302L10.0925 15.1419L10.0803 15.1532C8.66601 16.4674 6.96302 18.4438 6.26481 19.862C6.11052 20.1754 6.0305 20.4125 5.99945 20.5749C6.22208 20.5974 6.60799 20.5754 7.21594 20.4349C8.81028 20.0664 10.6146 18.7588 12.0583 17.1681C12.7667 16.3875 13.3513 15.5785 13.7527 14.8513C14.1709 14.0934 14.3268 13.5382 14.3268 13.2352C14.3268 12.8448 14.2307 12.602 14.0903 12.4188C13.9964 12.2961 13.857 12.1673 13.649 12.0379ZM5.84914 20.545C5.84924 20.5449 5.85099 20.5456 5.85408 20.5472C5.8506 20.5459 5.84905 20.5451 5.84914 20.545ZM5.98456 20.7231C5.98511 20.726 5.98524 20.7276 5.98517 20.7277C5.98509 20.7277 5.98482 20.7263 5.98456 20.7231Z" fill="black"/>
</svg>
