<svg width="24" height="24" viewBox="0 0 24 24" fill="none" xmlns="http://www.w3.org/2000/svg">
<path fill-rule="evenodd" clip-rule="evenodd" d="M10.2786 5.22875C10.7054 5.06161 11.21 4.94116 11.7048 5.03016C12.1018 5.10157 12.4652 5.26168 12.7234 5.55926C12.9891 5.86563 13.0667 6.22895 13.0539 6.54667C13.0303 7.12826 12.7067 7.67266 12.4556 7.98832C12.2111 8.29576 11.7672 8.34386 11.4642 8.09576C11.1612 7.84765 11.1138 7.39729 11.3583 7.08985C11.4328 6.99622 11.5085 6.87826 11.5643 6.75782C11.6201 6.63757 11.6413 6.54718 11.6447 6.4941C11.6159 6.47936 11.5593 6.45694 11.4587 6.43885C11.3274 6.41524 11.1053 6.43853 10.7862 6.56346C10.4787 6.6839 10.1441 6.87387 9.81964 7.09583C9.49755 7.31615 9.20301 7.55584 8.97697 7.7621C8.86403 7.86515 8.77235 7.95609 8.70529 8.02837C8.65093 8.08695 8.62529 8.11993 8.61768 8.1297C8.61474 8.13349 8.6145 8.1338 8.61634 8.13078C8.60522 8.14902 8.59432 8.16665 8.58367 8.18387C8.52445 8.27958 8.47311 8.36257 8.43706 8.46787C8.39895 8.5792 8.40708 8.63819 8.42587 8.68017C8.44718 8.72775 8.54602 8.89419 8.97579 9.08338C9.40694 9.27319 10.1075 9.45623 11.2146 9.56851C12.5504 9.70399 13.693 9.86141 14.5667 10.1471C14.9068 9.89304 15.2553 9.64526 15.6059 9.41168C16.4404 8.8556 17.3136 8.36186 18.1317 8.06126C18.9232 7.77047 19.8011 7.60862 20.5565 7.91496C20.918 8.0616 21.094 8.47786 20.9494 8.8447C20.8049 9.21155 20.3947 9.39006 20.0331 9.24342C19.7717 9.13742 19.311 9.14955 18.6118 9.40644C17.9393 9.65352 17.1699 10.0812 16.3799 10.6075C16.233 10.7054 16.0865 10.806 15.9406 10.9087C16.0266 10.9914 16.1066 11.0807 16.1796 11.1773C16.489 11.5871 16.6279 12.0698 16.6279 12.5996C16.6279 13.1679 16.387 13.8006 16.0696 14.3841C15.741 14.9883 15.2831 15.6249 14.7497 16.2213C13.7009 17.3939 12.2604 18.5198 10.7948 18.8635C10.3127 18.9765 9.88206 19.0261 9.51404 18.9866C9.14271 18.9467 8.7546 18.8046 8.49628 18.4565C8.24188 18.1136 8.22023 17.714 8.26471 17.3966C8.30942 17.0775 8.43124 16.7529 8.57816 16.4501C9.15456 15.2623 10.4311 13.7893 11.4189 12.8566C11.8547 12.4195 12.4596 11.8582 13.1569 11.2694C12.5879 11.1634 11.8983 11.0756 11.0743 10.9921C9.89362 10.8723 9.03246 10.6678 8.41455 10.3958C7.79525 10.1232 7.35772 9.75352 7.14208 9.27188C6.92392 8.78463 6.99454 8.32131 7.10508 7.99843C7.19968 7.72212 7.34583 7.49115 7.40111 7.40378C7.40784 7.39314 7.41323 7.38463 7.41701 7.37843C7.5396 7.17725 7.78622 6.92452 8.03406 6.69836C8.30479 6.45132 8.65074 6.16998 9.03142 5.90958C9.4097 5.65083 9.84025 5.40038 10.2786 5.22875ZM14.766 11.7898C13.8046 12.553 12.9544 13.3277 12.4029 13.8814L12.395 13.8893L12.3869 13.897C11.444 14.7859 10.3087 16.1228 9.84321 17.0821C9.74034 17.294 9.687 17.4544 9.6663 17.5642C9.81472 17.5795 10.072 17.5646 10.4773 17.4696C11.5402 17.2203 12.7431 16.3359 13.7055 15.2598C14.1778 14.7319 14.5676 14.1846 14.8351 13.6928C15.114 13.1801 15.2178 12.8045 15.2178 12.5996C15.2178 12.3355 15.1538 12.1713 15.0602 12.0474C14.9976 11.9644 14.9047 11.8773 14.766 11.7898Z" fill="black"/>
<path fill-rule="evenodd" clip-rule="evenodd" d="M3 4C3 2.89543 3.89543 2 5 2H12.5858C13.1162 2 13.6249 2.21071 14 2.58579L16.2071 4.79289C16.5976 5.18342 16.5976 5.81658 16.2071 6.20711C15.8166 6.59763 15.1834 6.59763 14.7929 6.20711L12.5858 4H5V20H17V17.5C17 16.9477 17.4477 16.5 18 16.5C18.5523 16.5 19 16.9477 19 17.5V20C19 21.1046 18.1046 22 17 22H5C3.89543 22 3 21.1046 3 20V4Z" fill="black"/>
</svg>
