<svg width="24" height="24" viewBox="0 0 24 24" fill="none" xmlns="http://www.w3.org/2000/svg">
<path fill-rule="evenodd" clip-rule="evenodd" d="M10.7469 6.26143C11.2347 6.07041 11.8114 5.93275 12.377 6.03447C12.8307 6.11608 13.246 6.29906 13.541 6.63916C13.8447 6.98929 13.9334 7.40451 13.9187 7.76762C13.8918 8.4323 13.5219 9.05447 13.235 9.41522C12.9555 9.76658 12.4483 9.82156 12.102 9.53801C11.7557 9.25446 11.7015 8.73976 11.9809 8.3884C12.0661 8.28139 12.1525 8.14658 12.2164 8.00893C12.2802 7.87151 12.3043 7.76821 12.3082 7.70755C12.2753 7.69069 12.2106 7.66507 12.0957 7.6444C11.9456 7.61741 11.6918 7.64403 11.3271 7.78681C10.9756 7.92446 10.5933 8.14156 10.2225 8.39524C9.85435 8.64703 9.51772 8.92095 9.25939 9.15668C9.13032 9.27446 9.02554 9.37838 8.9489 9.46099C8.88678 9.52795 8.85747 9.56563 8.84878 9.57681C8.84542 9.58113 8.84514 9.58148 8.84724 9.57803C8.83454 9.59888 8.82208 9.61903 8.8099 9.63871C8.74223 9.7481 8.68355 9.84294 8.64235 9.96328C8.5988 10.0905 8.60809 10.1579 8.62957 10.2059C8.65391 10.2603 8.76688 10.4505 9.25804 10.6667C9.75079 10.8836 10.5515 11.0928 11.8166 11.2211C13.3434 11.376 14.6492 11.5559 15.6476 11.8824C16.0363 11.592 16.4346 11.3089 16.8353 11.0419C17.7891 10.4064 18.7869 9.84213 19.722 9.49858C20.6265 9.16625 21.6299 8.98128 22.4931 9.33139C22.9063 9.49897 23.1074 9.9747 22.9422 10.3939C22.7771 10.8132 22.3082 11.0172 21.895 10.8496C21.5963 10.7285 21.0697 10.7423 20.2707 11.0359C19.5021 11.3183 18.6227 11.807 17.7198 12.4086C17.5521 12.5204 17.3845 12.6354 17.2179 12.7528C17.3161 12.8473 17.4075 12.9494 17.4909 13.0598C17.8446 13.5282 18.0033 14.0798 18.0033 14.6853C18.0033 15.3347 17.728 16.0578 17.3653 16.7246C16.9897 17.4152 16.4664 18.1428 15.8568 18.8243C14.6581 20.1645 13.0118 21.4512 11.337 21.844C10.786 21.9732 10.2938 22.0298 9.87319 21.9846C9.44881 21.9391 9.00526 21.7767 8.71004 21.3788C8.41929 20.987 8.39455 20.5303 8.44539 20.1675C8.49649 19.8029 8.63571 19.4319 8.80361 19.0859C9.46235 17.7283 10.9213 16.0449 12.0502 14.979C12.5483 14.4795 13.2395 13.838 14.0364 13.165C13.3862 13.0439 12.598 12.9436 11.6564 12.8481C10.307 12.7112 9.32281 12.4775 8.61663 12.1667C7.90886 11.8551 7.40882 11.4326 7.16237 10.8821C6.91305 10.3253 6.99376 9.79578 7.12009 9.42678C7.2282 9.111 7.39523 8.84703 7.45841 8.74718C7.46611 8.73502 7.47226 8.72529 7.47658 8.7182C7.61668 8.48829 7.89854 8.19945 8.18178 7.94099C8.49119 7.65865 8.88656 7.33712 9.32163 7.03952C9.75395 6.7438 10.246 6.45758 10.7469 6.26143ZM15.8754 13.7597C14.7767 14.632 13.805 15.5173 13.1747 16.1501L13.1657 16.1592L13.1564 16.1679C12.0789 17.1839 10.7814 18.7117 10.2494 19.8081C10.1318 20.0503 10.0709 20.2336 10.0472 20.3591C10.2168 20.3765 10.5108 20.3596 10.9741 20.2509C12.1888 19.966 13.5635 18.9553 14.6635 17.7255C15.2032 17.1222 15.6486 16.4967 15.9544 15.9346C16.2731 15.3487 16.3918 14.9195 16.3918 14.6853C16.3918 14.3834 16.3186 14.1958 16.2117 14.0541C16.1401 13.9593 16.0339 13.8597 15.8754 13.7597Z" fill="black"/>
<path fill-rule="evenodd" clip-rule="evenodd" d="M2 4C2 2.89543 2.89543 2 4 2H18C19.1046 2 20 2.89543 20 4V7.5C20 8.05228 19.5523 8.5 19 8.5C18.4477 8.5 18 8.05228 18 7.5V4H4V18H6C6.55228 18 7 18.4477 7 19C7 19.5523 6.55228 20 6 20H4C2.89543 20 2 19.1046 2 18V4Z" fill="black"/>
</svg>
