<svg width="24" height="24" viewBox="0 0 24 24" fill="none" xmlns="http://www.w3.org/2000/svg">
<path d="M2 14C1.45 14 0.979167 13.8041 0.5875 13.4125C0.195833 13.0208 0 12.55 0 12V5.99998C0 5.79998 0.0416667 5.60831 0.125 5.42498C0.208333 5.24164 0.316667 5.08331 0.45 4.94998L3.6 1.79998C3.75 1.64998 3.91667 1.53748 4.1 1.46248C4.28333 1.38748 4.46667 1.34998 4.65 1.34998C5.08333 1.34998 5.45833 1.51664 5.775 1.84998C6.09167 2.18331 6.20833 2.60831 6.125 3.12498L5.8 4.99998H11C11.2833 4.99998 11.5208 5.09581 11.7125 5.28748C11.9042 5.47914 12 5.71664 12 5.99998V7.24998C12 7.34998 11.9917 7.44581 11.975 7.53748C11.9583 7.62914 11.9333 7.71664 11.9 7.79998L9.65 13.1C9.53333 13.3833 9.34583 13.6041 9.0875 13.7625C8.82917 13.9208 8.55 14 8.25 14H2ZM7.95 12L10 7.14998V6.99998H3.35L3.95 4.29998L2 6.19998V12H7.95ZM13 19C12.7167 19 12.4792 18.9041 12.2875 18.7125C12.0958 18.5208 12 18.2833 12 18V16.75C12 16.65 12.0083 16.5541 12.025 16.4625C12.0417 16.3708 12.0667 16.2833 12.1 16.2L14.35 10.9C14.4833 10.6166 14.675 10.3958 14.925 10.2375C15.175 10.0791 15.45 9.99998 15.75 9.99998H22C22.55 9.99998 23.0208 10.1958 23.4125 10.5875C23.8042 10.9791 24 11.45 24 12V18C24 18.2 23.9625 18.3875 23.8875 18.5625C23.8125 18.7375 23.7 18.9 23.55 19.05L20.4 22.2C20.25 22.35 20.0833 22.4625 19.9 22.5375C19.7167 22.6125 19.5333 22.65 19.35 22.65C18.9167 22.65 18.5417 22.4833 18.225 22.15C17.9083 21.8166 17.7917 21.3916 17.875 20.875L18.2 19H13ZM16.05 12L14 16.85V17H20.65L20.05 19.7L22 17.8V12H16.05Z" fill="black"/>
</svg>
