<svg width="24" height="24" viewBox="0 0 24 24" fill="none" xmlns="http://www.w3.org/2000/svg">
<path fill-rule="evenodd" clip-rule="evenodd" d="M5.125 8.05V18.875H8.0625C8.58027 18.875 9 19.2947 9 19.8125C9 20.3303 8.58027 20.75 8.0625 20.75H5.2C4.65833 20.75 4.19792 20.5615 3.81875 20.1845C3.43958 19.8075 3.25 19.3544 3.25 18.825V6.675C3.25 6.46667 3.28542 6.26042 3.35625 6.05625C3.42708 5.85208 3.52917 5.66667 3.6625 5.5L4.8875 3.95C5.0625 3.725 5.27708 3.55208 5.53125 3.43125C5.78542 3.31042 6.05978 3.25 6.35433 3.25H17.6457C17.9402 3.25 18.2146 3.31042 18.4688 3.43125C18.7229 3.55208 18.9375 3.725 19.1125 3.95L20.3375 5.5C20.4708 5.66667 20.5729 5.85208 20.6438 6.05625C20.7146 6.26042 20.75 6.46667 20.75 6.675V10.5625C20.75 11.0803 20.3303 11.5 19.8125 11.5C19.2947 11.5 18.875 11.0803 18.875 10.5625V8.05H5.125ZM18.5 6.175H5.5125L6.34787 5.125H17.65L18.5 6.175Z" fill="black"/>
<path d="M16.45 19.3438C17.4333 19.3438 18.3458 19.1188 19.1875 18.6688C20.0292 18.2188 20.7 17.6104 21.2 16.8438C20.7 16.0771 20.0292 15.4687 19.1875 15.0187C18.3458 14.5687 17.4333 14.3438 16.45 14.3438C15.4667 14.3438 14.5542 14.5687 13.7125 15.0187C12.8708 15.4687 12.2 16.0771 11.7 16.8438C12.2 17.6104 12.8708 18.2188 13.7125 18.6688C14.5542 19.1188 15.4667 19.3438 16.45 19.3438ZM16.45 21.3438C15.15 21.3438 13.9583 21.0604 12.875 20.4937C11.7917 19.9271 10.9083 19.1687 10.225 18.2188C10.0917 18.0188 9.9875 17.8063 9.9125 17.5813C9.8375 17.3563 9.8 17.1271 9.8 16.8937C9.8 16.6604 9.83333 16.4187 9.89999 16.1687C9.96666 15.9187 10.075 15.6854 10.225 15.4688C10.8917 14.5188 11.7708 13.7604 12.8625 13.1938C13.9542 12.6271 15.15 12.3438 16.45 12.3438C17.75 12.3438 18.9417 12.6271 20.025 13.1938C21.1083 13.7604 21.9917 14.5188 22.675 15.4688C22.8083 15.6687 22.9125 15.8812 22.9875 16.1062C23.0625 16.3312 23.1 16.5604 23.1 16.7937C23.1 17.0271 23.0667 17.2688 23 17.5188C22.9333 17.7688 22.825 18.0021 22.675 18.2188C22.0083 19.1687 21.1292 19.9271 20.0375 20.4937C18.9458 21.0604 17.75 21.3438 16.45 21.3438ZM16.45 18.3438C16.0333 18.3438 15.6792 18.1979 15.3875 17.9062C15.0958 17.6146 14.95 17.2604 14.95 16.8438C14.95 16.4271 15.0958 16.0729 15.3875 15.7812C15.6792 15.4896 16.0333 15.3438 16.45 15.3438C16.8667 15.3438 17.2208 15.4896 17.5125 15.7812C17.8042 16.0729 17.95 16.4271 17.95 16.8438C17.95 17.2604 17.8042 17.6146 17.5125 17.9062C17.2208 18.1979 16.8667 18.3438 16.45 18.3438Z" fill="black"/>
</svg>
