<svg width="36" height="35" viewBox="0 0 36 35" fill="none" xmlns="http://www.w3.org/2000/svg">
<path fill-rule="evenodd" clip-rule="evenodd" d="M12.09 0.319183C10.8121 0.0925245 9.52079 0.400417 8.4461 0.81539C7.33987 1.24254 6.25757 1.86396 5.31076 2.5026C4.35731 3.14571 3.49113 3.84032 2.8127 4.45079C2.19719 5.00464 1.56595 5.6394 1.24586 6.15736C1.23762 6.17071 1.22569 6.18928 1.21064 6.2127L1.20857 6.21593C1.0733 6.42641 0.696667 7.01249 0.453473 7.71297C0.169324 8.53141 -0.0164978 9.71893 0.551739 10.9705C1.11316 12.2069 2.24499 13.1392 3.80877 13.818C5.36865 14.4952 7.52928 14.9989 10.472 15.2932C12.3323 15.4792 13.9106 15.6734 15.2352 15.9003C13.6294 17.2511 12.2372 18.5296 11.2162 19.539C8.75668 21.8296 5.56767 25.4547 4.12144 28.3937C3.75212 29.1442 3.44046 29.9593 3.32553 30.7681C3.21122 31.5724 3.26341 32.6084 3.93644 33.5027C4.62037 34.4116 5.64229 34.7741 6.5952 34.875C7.53889 34.975 8.63177 34.849 9.83918 34.5697C13.5334 33.7154 17.1433 30.9259 19.7601 28.041C21.0932 26.5713 22.2395 25.0002 23.064 23.5054C23.8574 22.067 24.4739 20.4836 24.4739 19.0445C24.4739 17.7122 24.1191 16.4884 23.3218 15.4471C23.1813 15.2637 23.0309 15.0909 22.8717 14.9279C23.1714 14.7216 23.4722 14.5191 23.7733 14.3212C25.7298 13.0358 27.6273 11.997 29.2782 11.3989C31.0026 10.7741 32.0911 10.7642 32.6742 10.9974C33.6687 11.3951 34.7973 10.9113 35.1951 9.91682C35.5928 8.9223 35.109 7.79366 34.1145 7.39593C32.172 6.61908 29.9353 7.03532 27.957 7.75207C25.9052 8.49543 23.7225 9.71354 21.6435 11.0795C20.7964 11.6361 19.9543 12.2253 19.1314 12.8296C16.9494 12.1408 14.1257 11.7604 10.858 11.4336C8.11805 11.1596 6.39929 10.7141 5.3533 10.26C4.31122 9.80764 4.1107 9.4267 4.08354 9.36688C4.06321 9.32211 4.0326 9.23026 4.1177 8.98514C4.19986 8.74849 4.31564 8.56374 4.46188 8.33039C4.48872 8.28757 4.51658 8.24311 4.54547 8.19639C4.54547 8.19639 4.54629 8.19547 4.54847 8.19283C4.57834 8.15687 4.83099 7.8526 5.40718 7.33413C5.9627 6.83425 6.6875 6.25264 7.47975 5.71825C8.27862 5.1794 9.09671 4.72207 9.84327 4.4338C10.6214 4.13335 11.1352 4.08916 11.4126 4.13836C11.5383 4.16065 11.6318 4.18525 11.6995 4.20737C11.6751 4.31622 11.6264 4.46726 11.5377 4.65589C11.4059 4.93602 11.2262 5.2124 11.0496 5.43138C10.3771 6.26508 10.5078 7.48606 11.3415 8.15852C12.1752 8.83098 13.3962 8.70027 14.0687 7.86657C14.7028 7.08039 15.5351 5.70861 15.596 4.22575C15.6294 3.41145 15.4276 2.47078 14.7286 1.67618C14.0505 0.905264 13.1029 0.498833 12.09 0.319183ZM13.9237 22.3168C15.2689 20.9848 17.3335 19.1282 19.6715 17.2909C19.9385 17.4703 20.1189 17.6443 20.2421 17.8052C20.4459 18.0714 20.5951 18.4321 20.5951 19.0445C20.5951 19.4991 20.3552 20.3855 19.6676 21.632C19.0112 22.8221 18.052 24.1508 16.8871 25.435C14.5078 28.0581 11.5515 30.1926 8.96524 30.7907C8.15193 30.9788 7.59201 31.0346 7.22897 31.0301C7.29573 30.7968 7.41304 30.4896 7.6017 30.1063C8.74301 27.7869 11.5437 24.5306 13.8796 22.359L13.902 22.3382L13.9237 22.3168ZM7.15645 31.4375L7.15593 31.4318C7.15605 31.4371 7.15645 31.4394 7.15645 31.4394V31.4375ZM11.8516 4.27274C11.8539 4.27429 11.8549 4.27516 11.8549 4.27516L11.8516 4.27274Z" fill="#151035"/>
</svg>
