<svg width="1280" height="347" viewBox="0 0 1280 347" fill="none" xmlns="http://www.w3.org/2000/svg">
<rect width="1280" height="347" fill="white"/>
<path fill-rule="evenodd" clip-rule="evenodd" d="M92.09 80.3192C90.8121 80.0925 89.5208 80.4004 88.4461 80.8154C87.3399 81.2425 86.2576 81.864 85.3108 82.5026C84.3573 83.1457 83.4911 83.8403 82.8127 84.4508C82.1972 85.0046 81.5659 85.6394 81.2459 86.1574C81.2376 86.1707 81.2257 86.1893 81.2106 86.2127L81.2086 86.2159C81.0733 86.4264 80.6967 87.0125 80.4535 87.713C80.1693 88.5314 79.9835 89.7189 80.5517 90.9705C81.1132 92.2069 82.245 93.1392 83.8088 93.818C85.3686 94.4952 87.5293 94.9989 90.472 95.2932C92.3323 95.4792 93.9106 95.6734 95.2352 95.9003C93.6294 97.2511 92.2372 98.5296 91.2162 99.539C88.7567 101.83 85.5677 105.455 84.1214 108.394C83.7521 109.144 83.4405 109.959 83.3255 110.768C83.2112 111.572 83.2634 112.608 83.9364 113.503C84.6204 114.412 85.6423 114.774 86.5952 114.875C87.5389 114.975 88.6318 114.849 89.8392 114.57C93.5334 113.715 97.1433 110.926 99.7601 108.041C101.093 106.571 102.239 105 103.064 103.505C103.857 102.067 104.474 100.484 104.474 99.0445C104.474 97.7122 104.119 96.4884 103.322 95.4471C103.181 95.2637 103.031 95.0909 102.872 94.9279C103.171 94.7216 103.472 94.5191 103.773 94.3212C105.73 93.0358 107.627 91.997 109.278 91.3989C111.003 90.7741 112.091 90.7642 112.674 90.9974C113.669 91.3951 114.797 90.9113 115.195 89.9168C115.593 88.9223 115.109 87.7937 114.114 87.3959C112.172 86.6191 109.935 87.0353 107.957 87.7521C105.905 88.4954 103.722 89.7135 101.643 91.0795C100.796 91.6361 99.9543 92.2253 99.1314 92.8296C96.9494 92.1408 94.1257 91.7604 90.858 91.4336C88.1181 91.1596 86.3993 90.7141 85.3533 90.26C84.3112 89.8076 84.1107 89.4267 84.0835 89.3669C84.0632 89.3221 84.0326 89.2303 84.1177 88.9851C84.1999 88.7485 84.3156 88.5637 84.4619 88.3304C84.4887 88.2876 84.5166 88.2431 84.5455 88.1964C84.5455 88.1964 84.5463 88.1955 84.5485 88.1928C84.5783 88.1569 84.831 87.8526 85.4072 87.3341C85.9627 86.8343 86.6875 86.2526 87.4797 85.7183C88.2786 85.1794 89.0967 84.7221 89.8433 84.4338C90.6214 84.1334 91.1352 84.0892 91.4126 84.1384C91.5383 84.1607 91.6318 84.1853 91.6995 84.2074C91.6751 84.3162 91.6264 84.4673 91.5377 84.6559C91.4059 84.936 91.2262 85.2124 91.0496 85.4314C90.3771 86.2651 90.5078 87.4861 91.3415 88.1585C92.1752 88.831 93.3962 88.7003 94.0687 87.8666C94.7028 87.0804 95.5351 85.7086 95.596 84.2258C95.6294 83.4114 95.4276 82.4708 94.7286 81.6762C94.0505 80.9053 93.1029 80.4988 92.09 80.3192ZM93.9237 102.317C95.2689 100.985 97.3335 99.1282 99.6715 97.2909C99.9385 97.4703 100.119 97.6443 100.242 97.8052C100.446 98.0714 100.595 98.4321 100.595 99.0445C100.595 99.4991 100.355 100.386 99.6676 101.632C99.0112 102.822 98.052 104.151 96.8871 105.435C94.5078 108.058 91.5515 110.193 88.9652 110.791C88.1519 110.979 87.592 111.035 87.229 111.03C87.2957 110.797 87.413 110.49 87.6017 110.106C88.743 107.787 91.5437 104.531 93.8796 102.359L93.902 102.338L93.9237 102.317ZM87.1564 111.437L87.1559 111.432C87.156 111.437 87.1564 111.439 87.1564 111.439V111.437ZM91.8516 84.2727C91.8539 84.2743 91.8549 84.2752 91.8549 84.2752L91.8516 84.2727Z" fill="#151035"/>
<path d="M80 249.7C82.9971 257.4 90.6896 267 106.274 267C123.558 267 132.848 256.3 132.848 245.1C132.848 234.2 126.155 226.3 112.868 223.6L105.775 222.2C101.279 221.3 98.3821 218.9 98.3821 214.9C98.3821 211.1 102.178 207.8 107.773 207.8C113.567 207.8 117.563 211.5 118.862 215.5L130.351 208.3C126.655 200.7 118.862 195 107.773 195C91.7885 195 83.9961 205.8 83.9961 215.1C83.9961 227.2 92.4878 233.5 102.378 235.4L109.172 236.6C114.566 237.7 118.063 240.4 118.063 245.1C118.063 250.4 113.467 253.4 106.274 253.4C98.1823 253.4 93.1871 248.3 91.3889 243.1L80 249.7Z" fill="#151035"/>
<path fill-rule="evenodd" clip-rule="evenodd" d="M246.09 195.319C244.812 195.093 243.521 195.4 242.446 195.815C241.34 196.243 240.258 196.864 239.311 197.503C238.357 198.146 237.491 198.84 236.813 199.451C236.197 200.005 235.566 200.639 235.246 201.157C235.238 201.171 235.226 201.189 235.211 201.213L235.209 201.216C235.073 201.426 234.697 202.012 234.453 202.713C234.169 203.531 233.984 204.719 234.552 205.97C235.113 207.207 236.245 208.139 237.809 208.818C239.369 209.495 241.529 209.999 244.472 210.293C246.332 210.479 247.911 210.673 249.235 210.9C247.629 212.251 246.237 213.53 245.216 214.539C242.757 216.83 239.568 220.455 238.121 223.394C237.752 224.144 237.44 224.959 237.326 225.768C237.211 226.572 237.263 227.608 237.936 228.503C238.62 229.412 239.642 229.774 240.595 229.875C241.539 229.975 242.632 229.849 243.839 229.57C247.533 228.715 251.143 225.926 253.76 223.041C255.093 221.571 256.239 220 257.064 218.505C257.857 217.067 258.474 215.484 258.474 214.044C258.474 212.712 258.119 211.488 257.322 210.447C257.181 210.264 257.031 210.091 256.872 209.928C257.171 209.722 257.472 209.519 257.773 209.321C259.73 208.036 261.627 206.997 263.278 206.399C265.003 205.774 266.091 205.764 266.674 205.997C267.669 206.395 268.797 205.911 269.195 204.917C269.593 203.922 269.109 202.794 268.115 202.396C266.172 201.619 263.935 202.035 261.957 202.752C259.905 203.495 257.723 204.714 255.643 206.08C254.796 206.636 253.954 207.225 253.131 207.83C250.949 207.141 248.126 206.76 244.858 206.434C242.118 206.16 240.399 205.714 239.353 205.26C238.311 204.808 238.111 204.427 238.084 204.367C238.063 204.322 238.033 204.23 238.118 203.985C238.2 203.748 238.316 203.564 238.462 203.33C238.489 203.288 238.517 203.243 238.545 203.196C238.545 203.197 238.546 203.195 238.548 203.193C238.578 203.157 238.831 202.853 239.407 202.334C239.963 201.834 240.688 201.253 241.48 200.718C242.279 200.179 243.097 199.722 243.843 199.434C244.621 199.133 245.135 199.089 245.413 199.138C245.538 199.161 245.632 199.185 245.7 199.207C245.675 199.316 245.626 199.467 245.538 199.656C245.406 199.936 245.226 200.212 245.05 200.431C244.377 201.265 244.508 202.486 245.342 203.159C246.175 203.831 247.396 203.7 248.069 202.867C248.703 202.08 249.535 200.709 249.596 199.226C249.629 198.411 249.428 197.471 248.729 196.676C248.05 195.905 247.103 195.499 246.09 195.319ZM247.924 217.317C249.269 215.985 251.334 214.128 253.672 212.291C253.938 212.47 254.119 212.644 254.242 212.805C254.446 213.071 254.595 213.432 254.595 214.044C254.595 214.499 254.355 215.386 253.668 216.632C253.011 217.822 252.052 219.151 250.887 220.435C248.508 223.058 245.552 225.193 242.965 225.791C242.152 225.979 241.592 226.035 241.229 226.03C241.296 225.797 241.413 225.49 241.602 225.106C242.743 222.787 245.544 219.531 247.88 217.359L247.902 217.338L247.924 217.317ZM241.156 226.437L241.156 226.432C241.156 226.437 241.156 226.44 241.156 226.439V226.437ZM245.852 199.273C245.854 199.274 245.855 199.275 245.855 199.275L245.852 199.273Z" fill="#151035"/>
<path fill-rule="evenodd" clip-rule="evenodd" d="M179.878 243C179.878 255.946 190.176 267 205.072 267C213.969 267 221.367 262.917 225.766 256.743L215.869 249.772C213.77 253.357 209.671 255.448 205.072 255.548C199.273 255.448 194.575 252.162 193.175 246.585H228.965C230.365 230.552 219.868 219 204.872 219C189.876 219 179.878 230.154 179.878 243ZM216.269 238.22H193.475C194.874 233.639 198.973 230.253 204.872 230.154C210.77 230.253 214.969 233.938 216.269 238.22Z" fill="#151035"/>
<path d="M156.313 267C142.085 267 135.272 257.414 135.272 245.732V219.97H147.796V246.131C147.796 251.124 150.802 255.217 156.313 255.217C161.924 255.217 164.929 251.124 164.929 246.131V219.97H177.454V245.732C177.454 257.414 170.641 267 156.313 267Z" fill="#151035"/>
</svg>
