<svg xmlns="http://www.w3.org/2000/svg" width="190" height="72" viewBox="0 0 190 72" fill="none">
  <path d="M0 54.7C2.99708 62.4 10.6896 72 26.2744 72C43.5575 72 52.8485 61.3 52.8485 50.1C52.8485 39.2 46.155 31.3 32.868 28.6L25.7749 27.2C21.2793 26.3 18.3821 23.9 18.3821 19.9C18.3821 16.1 22.1784 12.8 27.7729 12.8C33.5673 12.8 37.5634 16.5 38.8621 20.5L50.3509 13.3C46.6545 5.7 38.8621 0 27.7729 0C11.7885 0 3.99611 10.8 3.99611 20.1C3.99611 32.2 12.4878 38.5 22.3782 40.4L29.1716 41.6C34.5663 42.7 38.0629 45.4 38.0629 50.1C38.0629 55.4 33.4674 58.4 26.2744 58.4C18.1823 58.4 13.1871 53.3 11.3889 48.1L0 54.7Z" fill="#151035"/>
  <path fill-rule="evenodd" clip-rule="evenodd" d="M166.09 0.319175C164.812 0.0925169 163.521 0.400409 162.446 0.815383C161.34 1.24253 160.258 1.86396 159.311 2.50259C158.357 3.1457 157.491 3.84031 156.813 4.45078C156.197 5.00463 155.566 5.63939 155.246 6.15735C155.238 6.1707 155.226 6.18928 155.211 6.21269L155.209 6.21592C155.073 6.4264 154.697 7.01248 154.453 7.71296C154.169 8.5314 153.984 9.71892 154.552 10.9704C155.113 12.2069 156.245 13.1392 157.809 13.818C159.369 14.4952 161.529 14.9988 164.472 15.2931C166.332 15.4792 167.911 15.6733 169.235 15.9002C167.629 17.2511 166.237 18.5296 165.216 19.539C162.757 21.8296 159.568 25.4547 158.121 28.3937C157.752 29.1442 157.44 29.9593 157.326 30.7681C157.211 31.5724 157.263 32.6084 157.936 33.5027C158.62 34.4116 159.642 34.7741 160.595 34.875C161.539 34.975 162.632 34.849 163.839 34.5697C167.533 33.7154 171.143 30.9258 173.76 28.041C175.093 26.5713 176.239 25.0002 177.064 23.5054C177.857 22.067 178.474 20.4836 178.474 19.0444C178.474 17.7122 178.119 16.4884 177.322 15.4471C177.181 15.2637 177.031 15.0909 176.872 14.9279C177.171 14.7216 177.472 14.5191 177.773 14.3212C179.73 13.0358 181.627 11.997 183.278 11.3989C185.003 10.7741 186.091 10.7642 186.674 10.9974C187.669 11.3951 188.797 10.9113 189.195 9.91681C189.593 8.9223 189.109 7.79366 188.115 7.39592C186.172 6.61908 183.935 7.03531 181.957 7.75206C179.905 8.49543 177.723 9.71353 175.643 11.0795C174.796 11.6361 173.954 12.2253 173.131 12.8296C170.949 12.1408 168.126 11.7604 164.858 11.4336C162.118 11.1596 160.399 10.7141 159.353 10.26C158.311 9.80763 158.111 9.42669 158.084 9.36687C158.063 9.32211 158.033 9.23025 158.118 8.98513C158.2 8.74848 158.316 8.56373 158.462 8.33039C158.489 8.28756 158.517 8.2431 158.545 8.19638C158.545 8.19665 158.546 8.19546 158.548 8.19282C158.578 8.15686 158.831 7.85259 159.407 7.33412C159.963 6.83424 160.688 6.25263 161.48 5.71825C162.279 5.17939 163.097 4.72206 163.843 4.43379C164.621 4.13335 165.135 4.08915 165.413 4.13835C165.538 4.16065 165.632 4.18525 165.7 4.20737C165.675 4.31622 165.626 4.46725 165.538 4.65588C165.406 4.93601 165.226 5.21239 165.05 5.43138C164.377 6.26507 164.508 7.48605 165.342 8.15851C166.175 8.83097 167.396 8.70026 168.069 7.86656C168.703 7.08038 169.535 5.7086 169.596 4.22575C169.629 3.41144 169.428 2.47077 168.729 1.67617C168.05 0.905256 167.103 0.498825 166.09 0.319175ZM167.924 22.3168C169.269 20.9848 171.334 19.1281 173.672 17.2909C173.938 17.4703 174.119 17.6443 174.242 17.8052C174.446 18.0714 174.595 18.4321 174.595 19.0444C174.595 19.4991 174.355 20.3855 173.668 21.632C173.011 22.8221 172.052 24.1508 170.887 25.435C168.508 28.058 165.552 30.1926 162.965 30.7907C162.152 30.9788 161.592 31.0346 161.229 31.0301C161.296 30.7968 161.413 30.4896 161.602 30.1062C162.743 27.7869 165.544 24.5306 167.88 22.359L167.902 22.3382L167.924 22.3168ZM161.156 31.4374L161.156 31.4318C161.156 31.437 161.156 31.4395 161.156 31.4394V31.4374ZM165.852 4.27274C165.854 4.27428 165.855 4.27512 165.855 4.27515L165.852 4.27274Z" fill="#151035"/>
  <path fill-rule="evenodd" clip-rule="evenodd" d="M99.8784 48C99.8784 60.9461 110.176 72 125.072 72C133.969 72 141.367 67.917 145.766 61.7427L135.869 54.7718C133.77 58.3568 129.671 60.4481 125.072 60.5477C119.273 60.4481 114.575 57.1618 113.175 51.5851H148.965C150.365 35.5519 139.868 24 124.872 24C109.876 24 99.8784 35.1535 99.8784 48ZM136.269 43.2199H113.475C114.874 38.639 118.973 35.2531 124.872 35.1535C130.77 35.2531 134.969 38.9378 136.269 43.2199Z" fill="#151035"/>
  <path d="M76.3128 72C62.0852 72 55.272 62.4142 55.272 50.7315V24.9697H67.7963V51.1309C67.7963 56.1235 70.8021 60.2174 76.3128 60.2174C81.9237 60.2174 84.9295 56.1235 84.9295 51.1309V24.9697H97.4538V50.7315C97.4538 62.4142 90.6406 72 76.3128 72Z" fill="#151035"/>
</svg>